<svg width="512" height="512" viewBox="0 0 512 512" fill="none" xmlns="http://www.w3.org/2000/svg">
<path d="M149.333 405.333C67.008 405.333 0 338.325 0 256C0 173.675 67.008 106.667 149.333 106.667C231.659 106.667 298.667 173.675 298.667 256C298.667 338.325 231.659 405.333 149.333 405.333ZM149.333 128C78.7413 128 21.3333 185.408 21.3333 256C21.3333 326.592 78.7413 384 149.333 384C219.925 384 277.333 326.592 277.333 256C277.333 185.408 219.925 128 149.333 128Z" fill="black"/>
<path d="M266.197 341.333H425.998C437.177 341.383 448.251 339.181 458.566 334.857C468.882 330.533 478.228 324.175 486.051 316.16C494.003 308.314 500.307 298.949 504.592 288.616C508.877 278.283 511.056 267.192 510.999 256C510.999 208.939 472.876 170.667 425.998 170.667H266.197C263.379 170.667 260.677 171.79 258.684 173.791C256.692 175.791 255.572 178.504 255.572 181.333C255.572 184.162 256.692 186.875 258.684 188.876C260.677 190.876 263.379 192 266.197 192H425.998C461.146 192 489.749 220.715 489.749 256C489.749 273.173 483.119 289.173 471.027 301.077C465.173 307.106 458.168 311.889 450.431 315.14C442.695 318.391 434.385 320.044 425.998 320H266.197C263.379 320 260.677 321.124 258.684 323.124C256.692 325.125 255.572 327.838 255.572 330.667C255.572 333.496 256.692 336.209 258.684 338.209C260.677 340.209 263.379 341.333 266.197 341.333Z" fill="black"/>
<path d="M149 192C184.285 192 213 220.715 213 256C213 291.285 184.285 320 149 320C113.715 320 85 291.285 85 256C85 220.715 113.715 192 149 192ZM149 216C126.909 216 109 233.909 109 256C109 278.091 126.909 296 149 296C171.091 296 189 278.091 189 256C189 233.909 171.091 216 149 216Z" fill="black"/>
</svg>
