<svg width="512" height="512" viewBox="0 0 512 512" fill="none" xmlns="http://www.w3.org/2000/svg">
<path d="M85.332 171H297.602C284.758 196.75 277.332 225.656 277.332 256.332C277.332 287.012 284.758 315.918 297.602 341.668H85.332C38.273 341.668 0 303.395 0 256.332C0 209.273 38.273 171 85.332 171Z" fill="#1D61E7"/>
<path d="M512 256.332C512 338.809 445.14 405.668 362.668 405.668C280.191 405.668 213.332 338.808 213.332 256.332C213.332 173.859 280.192 107 362.668 107C445.141 107 512 173.86 512 256.332Z" fill="#6197FF"/>
<path d="M426.668 256.332C426.668 291.68 398.012 320.332 362.668 320.332C327.32 320.332 298.668 291.68 298.668 256.332C298.668 220.988 327.32 192.332 362.668 192.332C398.012 192.332 426.668 220.988 426.668 256.332Z" fill="#FAFAFA"/>
</svg>
