<svg width="100" height="100" viewBox="0 0 100 100" fill="none" xmlns="http://www.w3.org/2000/svg">
<path d="M90.625 50C90.625 53.4688 86.375 56.25 85.5 59.5312C84.625 62.8125 86.875 67.4375 85.1875 70.3125C83.5 73.1875 78.375 73.5937 76 76C73.625 78.4062 73.25 83.5 70.3125 85.1875C67.375 86.875 62.8125 84.625 59.5312 85.5C56.25 86.375 53.4688 90.625 50 90.625C46.5312 90.625 43.75 86.375 40.625 85.5C37.5 84.625 32.7188 86.875 29.8438 85.1875C26.9688 83.5 26.5625 78.375 24.1563 76C21.75 73.625 16.6562 73.25 14.9687 70.3125C13.2812 67.375 15.5313 62.8125 14.6563 59.5312C13.7813 56.25 9.375 53.4688 9.375 50C9.375 46.5312 13.625 43.75 14.5 40.625C15.375 37.5 13.125 32.7188 14.8125 29.8438C16.5 26.9688 21.625 26.4062 24 24C26.375 21.5937 26.75 16.5 29.6875 14.8125C32.625 13.125 37.1875 15.375 40.4687 14.5C43.75 13.625 46.5312 9.375 50 9.375C53.4688 9.375 56.25 13.625 59.5312 14.5C62.8125 15.375 67.4375 13.125 70.3125 14.8125C73.1875 16.5 73.5937 21.625 76 24C78.4062 26.375 83.5 26.75 85.1875 29.6875C86.875 32.625 84.625 37.1875 85.5 40.4687C86.375 43.75 90.625 46.5312 90.625 50Z" fill="#C8C0F2"/>
<path d="M50 76.5625C64.6701 76.5625 76.5625 64.6701 76.5625 50C76.5625 35.3299 64.6701 23.4375 50 23.4375C35.3299 23.4375 23.4375 35.3299 23.4375 50C23.4375 64.6701 35.3299 76.5625 50 76.5625Z" fill="#6376E8"/>
<path d="M47.2811 57.4061C46.9732 57.4076 46.6681 57.3475 46.3837 57.2294C46.0992 57.1114 45.8413 56.9377 45.6249 56.7186L38.3436 49.5623C37.9047 49.1229 37.6582 48.5272 37.6582 47.9061C37.6582 47.285 37.9047 46.6893 38.3436 46.2499C38.7831 45.8109 39.3788 45.5644 39.9999 45.5644C40.621 45.5644 41.2167 45.8109 41.6561 46.2499L47.2811 51.8124L58.3436 40.9061C58.787 40.4668 59.3868 40.2217 60.0109 40.2246C60.6351 40.2276 61.2325 40.4783 61.6718 40.9217C62.111 41.3651 62.3562 41.9649 62.3532 42.589C62.3503 43.2132 62.0995 43.8106 61.6561 44.2499L48.9061 56.7498C48.6951 56.9653 48.4419 57.1349 48.1622 57.2478C47.8826 57.3608 47.5826 57.4146 47.2811 57.4061Z" fill="white"/>
</svg>
