<svg width="60" height="60" viewBox="0 0 60 60" fill="none" xmlns="http://www.w3.org/2000/svg">
<g clip-path="url(#clip0_6090_21485)">
<path d="M23.5532 18.7338H6.35106C5.7228 18.7508 5.09745 18.6423 4.51167 18.4145C3.92589 18.1868 3.39145 17.8444 2.93967 17.4075C2.48788 16.9705 2.12784 16.4479 1.88063 15.87C1.63342 15.2922 1.50402 14.6708 1.5 14.0423V4.72318C1.49977 4.092 1.62604 3.46718 1.87136 2.88563C2.11668 2.30407 2.47606 1.77759 2.92828 1.33727C3.3805 0.896949 3.91638 0.55173 4.50427 0.322006C5.09215 0.0922826 5.72012 -0.0172864 6.35106 -0.000227561H23.5532C24.172 -0.000241879 24.7847 0.122156 25.356 0.359919C25.9272 0.597682 26.4458 0.946111 26.8819 1.38514C27.318 1.82417 27.6629 2.34513 27.8968 2.91802C28.1307 3.49091 28.2489 4.1044 28.2447 4.72318V14.0423C28.2447 14.6584 28.1233 15.2685 27.8876 15.8377C27.6518 16.4069 27.3062 16.9241 26.8706 17.3597C26.4349 17.7954 25.9177 18.1409 25.3485 18.3767C24.7794 18.6125 24.1693 18.7338 23.5532 18.7338ZM6.35106 2.39339C5.73317 2.39339 5.14058 2.63885 4.70366 3.07577C4.26674 3.51269 4.02128 4.10528 4.02128 4.72318V14.0423C4.02967 14.6547 4.27882 15.2391 4.71484 15.6691C5.15085 16.0992 5.73866 16.3403 6.35106 16.3402H23.5532C24.1626 16.3402 24.7471 16.0981 25.178 15.6672C25.609 15.2362 25.8511 14.6518 25.8511 14.0423V4.72318C25.8511 4.11077 25.6101 3.52296 25.18 3.08695C24.75 2.65094 24.1655 2.40178 23.5532 2.39339H6.35106Z" fill="#161616"/>
<path d="M14.9351 18.4149C14.619 18.4066 14.3187 18.2751 14.0981 18.0486C13.8775 17.822 13.7541 17.5183 13.7542 17.2021V1.5319C13.7258 1.35836 13.7355 1.18072 13.7825 1.01128C13.8296 0.841841 13.9129 0.684662 14.0268 0.55064C14.1406 0.416618 14.2822 0.308958 14.4418 0.235124C14.6014 0.16129 14.7752 0.123047 14.951 0.123047C15.1269 0.123047 15.3006 0.16129 15.4602 0.235124C15.6198 0.308958 15.7615 0.416618 15.8753 0.55064C15.9892 0.684662 16.0725 0.841841 16.1196 1.01128C16.1666 1.18072 16.1763 1.35836 16.1479 1.5319V17.2021C16.1479 17.5238 16.0201 17.8322 15.7926 18.0597C15.5652 18.2871 15.2567 18.4149 14.9351 18.4149Z" fill="#161616"/>
<path d="M18.3182 12.7655C17.9966 12.7655 17.6881 12.6377 17.4607 12.4103C17.2332 12.1828 17.1055 11.8744 17.1055 11.5527V7.24422C17.152 6.96035 17.2979 6.70225 17.5171 6.51602C17.7363 6.32978 18.0146 6.22754 18.3023 6.22754C18.5899 6.22754 18.8682 6.32978 19.0874 6.51602C19.3067 6.70225 19.4526 6.96035 19.4991 7.24422V11.4889C19.5077 11.6508 19.4837 11.8128 19.4286 11.9652C19.3735 12.1177 19.2884 12.2576 19.1783 12.3766C19.0682 12.4956 18.9354 12.5914 18.7877 12.6582C18.6399 12.725 18.4803 12.7615 18.3182 12.7655Z" fill="#161616"/>
<path d="M11.6809 12.7655C11.3648 12.7572 11.0644 12.6257 10.8439 12.3992C10.6233 12.1727 10.4999 11.8689 10.5 11.5527V7.24422C10.5465 6.96035 10.6924 6.70225 10.9116 6.51602C11.1309 6.32978 11.4092 6.22754 11.6968 6.22754C11.9845 6.22754 12.2628 6.32978 12.482 6.51602C12.7012 6.70225 12.8471 6.96035 12.8936 7.24422V11.4889C12.9023 11.6534 12.8773 11.818 12.8203 11.9726C12.7632 12.1272 12.6753 12.2686 12.5618 12.388C12.4483 12.5075 12.3116 12.6026 12.1602 12.6675C12.0087 12.7324 11.8456 12.7657 11.6809 12.7655Z" fill="#161616"/>
<path d="M25.4043 59.9997C25.0881 59.9999 24.7843 59.8765 24.5578 59.6559C24.3312 59.4353 24.1998 59.135 24.1915 58.8189V46.3402C24.1915 45.9762 24.0469 45.6271 23.7895 45.3698C23.5322 45.1124 23.1831 44.9678 22.8191 44.9678H5.26596C4.90199 44.9678 4.55293 45.1124 4.29557 45.3698C4.0382 45.6271 3.89362 45.9762 3.89362 46.3402V58.8189C3.84711 59.1028 3.70121 59.3609 3.48198 59.5471C3.26275 59.7333 2.98446 59.8356 2.69681 59.8356C2.40915 59.8356 2.13087 59.7333 1.91164 59.5471C1.69241 59.3609 1.54651 59.1028 1.5 58.8189L1.5 46.3402C1.5 45.3414 1.89677 44.3835 2.60302 43.6772C3.30928 42.971 4.26716 42.5742 5.26596 42.5742H22.8191C23.8179 42.5742 24.7758 42.971 25.4821 43.6772C26.1883 44.3835 26.5851 45.3414 26.5851 46.3402V58.8189C26.577 59.1295 26.45 59.4252 26.2303 59.645C26.0106 59.8647 25.7149 59.9917 25.4043 59.9997Z" fill="#161616"/>
<path d="M2.71277 47.5531C2.5535 47.5531 2.3958 47.5217 2.24866 47.4608C2.10152 47.3998 1.96783 47.3105 1.85521 47.1979C1.7426 47.0852 1.65326 46.9515 1.59232 46.8044C1.53137 46.6573 1.5 46.4996 1.5 46.3403V23.9999C1.5 23.6782 1.62777 23.3698 1.85521 23.1423C2.08265 22.9149 2.39112 22.7871 2.71277 22.7871C3.02885 22.7954 3.32918 22.9269 3.54976 23.1534C3.77034 23.38 3.89373 23.6837 3.89362 23.9999V46.3403C3.89373 46.6565 3.77034 46.9602 3.54976 47.1868C3.32918 47.4133 3.02885 47.5447 2.71277 47.5531Z" fill="#161616"/>
<path d="M18 44.9681H5.61702C4.52512 44.9681 3.47794 44.5344 2.70585 43.7623C1.93376 42.9902 1.5 41.943 1.5 40.8511L1.5 37.9788C1.49998 37.4396 1.6067 36.9058 1.81398 36.4081C2.02127 35.9104 2.32504 35.4586 2.70776 35.0788C3.09049 34.6991 3.5446 34.3988 4.04392 34.1954C4.54323 33.992 5.07788 33.8895 5.61702 33.8937H18C18.5391 33.8895 19.0738 33.992 19.5731 34.1954C20.0724 34.3988 20.5265 34.6991 20.9093 35.0788C21.292 35.4586 21.5957 35.9104 21.803 36.4081C22.0103 36.9058 22.117 37.4396 22.117 37.9788V40.8511C22.117 41.943 21.6833 42.9902 20.9112 43.7623C20.1391 44.5344 19.0919 44.9681 18 44.9681ZM5.61702 36.2873C5.16542 36.2872 4.73184 36.4644 4.40954 36.7807C4.08724 37.0971 3.90198 37.5273 3.89362 37.9788V40.8511C3.89362 41.3082 4.07519 41.7466 4.39839 42.0698C4.72159 42.393 5.15995 42.5745 5.61702 42.5745H18C18.4571 42.5745 18.8954 42.393 19.2186 42.0698C19.5418 41.7466 19.7234 41.3082 19.7234 40.8511V37.9788C19.715 37.5273 19.5298 37.0971 19.2075 36.7807C18.8852 36.4644 18.4516 36.2872 18 36.2873H5.61702Z" fill="#161616"/>
<path d="M57.3173 36.2865H29.6471C29.4736 36.315 29.296 36.3053 29.1265 36.2583C28.9571 36.2112 28.7999 36.1279 28.6659 36.014C28.5319 35.9002 28.4242 35.7585 28.3504 35.5989C28.2765 35.4393 28.2383 35.2656 28.2383 35.0897C28.2383 34.9139 28.2765 34.7401 28.3504 34.5805C28.4242 34.4209 28.5319 34.2793 28.6659 34.1654C28.7999 34.0516 28.9571 33.9682 29.1265 33.9212C29.296 33.8741 29.4736 33.8645 29.6471 33.8929H57.3173C57.6012 33.9394 57.8593 34.0853 58.0455 34.3045C58.2318 34.5238 58.334 34.8021 58.334 35.0897C58.334 35.3774 58.2318 35.6557 58.0455 35.8749C57.8593 36.0941 57.6012 36.24 57.3173 36.2865Z" fill="#161616"/>
<path d="M53.2984 44.6801H34.1495C33.8656 44.6336 33.6075 44.4877 33.4213 44.2684C33.2351 44.0492 33.1328 43.7709 33.1328 43.4833C33.1328 43.1956 33.2351 42.9173 33.4213 42.6981C33.6075 42.4789 33.8656 42.333 34.1495 42.2865H53.2984C53.472 42.258 53.6496 42.2677 53.819 42.3147C53.9885 42.3618 54.1457 42.4451 54.2797 42.559C54.4137 42.6728 54.5214 42.8145 54.5952 42.9741C54.669 43.1337 54.7073 43.3074 54.7073 43.4833C54.7073 43.6591 54.669 43.8329 54.5952 43.9925C54.5214 44.1521 54.4137 44.2937 54.2797 44.4076C54.1457 44.5214 53.9885 44.6048 53.819 44.6518C53.6496 44.6989 53.472 44.7085 53.2984 44.6801Z" fill="#161616"/>
<path d="M34.2121 60.0001C33.9015 59.9921 33.6058 59.8651 33.3861 59.6453C33.1663 59.4256 33.0393 59.1299 33.0312 58.8193V35.1065C33.0778 34.8227 33.2237 34.5646 33.4429 34.3783C33.6621 34.1921 33.9404 34.0898 34.2281 34.0898C34.5157 34.0898 34.794 34.1921 35.0132 34.3783C35.2325 34.5646 35.3784 34.8227 35.4249 35.1065V58.8512C35.4085 59.1617 35.2735 59.454 35.0479 59.6678C34.8222 59.8816 34.523 60.0006 34.2121 60.0001Z" fill="#161616"/>
<path d="M53.298 60.0001C52.9874 59.9921 52.6917 59.8651 52.472 59.6453C52.2523 59.4256 52.1253 59.1299 52.1172 58.8193V35.1065C52.1637 34.8227 52.3096 34.5646 52.5288 34.3783C52.7481 34.1921 53.0263 34.0898 53.314 34.0898C53.6017 34.0898 53.8799 34.1921 54.0992 34.3783C54.3184 34.5646 54.4643 34.8227 54.5108 35.1065V58.8512C54.4944 59.1617 54.3595 59.454 54.1338 59.6678C53.9081 59.8816 53.6089 60.0006 53.298 60.0001Z" fill="#161616"/>
<path d="M52.0516 36.2865C51.7355 36.2782 51.4352 36.1468 51.2146 35.9202C50.994 35.6937 50.8707 35.39 50.8708 35.0738V23.744L43.4346 21.127C43.1383 21.0254 42.8946 20.8103 42.7569 20.529C42.6193 20.2477 42.599 19.9232 42.7005 19.627C42.8021 19.3307 43.0172 19.087 43.2985 18.9493C43.5798 18.8116 43.9043 18.7914 44.2005 18.8929L52.4665 21.7653C52.6993 21.8451 52.9014 21.9957 53.0444 22.1959C53.1875 22.3962 53.2644 22.6362 53.2644 22.8823V35.1057C53.2561 35.4218 53.1246 35.7221 52.8981 35.9427C52.6715 36.1633 52.3678 36.2867 52.0516 36.2865Z" fill="#161616"/>
</g>
<defs>
<clipPath id="clip0_6090_21485">
<rect width="60" height="60" fill="white"/>
</clipPath>
</defs>
</svg>
