<svg width="25" height="24" viewBox="0 0 25 24" fill="none" xmlns="http://www.w3.org/2000/svg">
<g clip-path="url(#clip0_3401_14946)">
<path d="M12.5 0C7.538 0 3.5 4.066 3.5 9.06501C3.5 16.168 11.654 23.502 12.001 23.81C12.1382 23.9328 12.3157 24.0008 12.4998 24.0009C12.6839 24.0011 12.8616 23.9335 12.999 23.811C13.346 23.502 21.5 16.168 21.5 9.06501C21.5 4.066 17.462 0 12.5 0ZM12.5 14C9.743 14 7.5 11.757 7.5 9.00001C7.5 6.243 9.743 4 12.5 4C15.257 4 17.5 6.243 17.5 9.00001C17.5 11.757 15.257 14 12.5 14Z" fill="#6376E8"/>
</g>
<defs>
<clipPath id="clip0_3401_14946">
<rect width="24" height="24" fill="white" transform="translate(0.5)"/>
</clipPath>
</defs>
</svg>
