<svg width="60" height="60" viewBox="0 0 60 60" fill="none" xmlns="http://www.w3.org/2000/svg">
<path d="M57.6809 3.96777H31.9066C30.6305 3.96777 29.591 5.00605 29.591 6.2834V23.04L28.8211 22.6264C27.8695 22.1119 26.7363 22.1178 25.7883 22.6404L24.4594 23.3529V16.4646C24.4594 15.3455 23.5488 14.435 22.4297 14.435H2.02969C0.910547 14.435 0 15.3455 0 16.4646V55.0943C0 55.6123 0.419531 56.0307 0.936328 56.0307H57.5215C58.8879 56.0307 60 54.9209 60 53.5557V6.2834C60 5.00723 58.9594 3.96777 57.6809 3.96777ZM26.6789 24.2893C26.6824 24.2869 26.6859 24.2846 26.6906 24.2834C27.0785 24.0678 27.5426 24.0654 27.9328 24.2764L45.3012 33.5939C45.6059 33.758 45.8285 34.0311 45.9281 34.3627C46.0277 34.6943 45.9914 35.0459 45.8262 35.3529C45.4898 35.9811 44.7023 36.2166 44.0707 35.8791L42.5742 35.0764C42.5402 35.0553 42.5039 35.0353 42.4664 35.0189L27.7617 27.1264C27.6256 27.0531 27.4734 27.0148 27.3187 27.0148C27.1641 27.0148 27.0119 27.0531 26.8758 27.1264L12.1418 35.0318C12.123 35.0412 12.1043 35.0506 12.0855 35.0623L10.5633 35.8791C9.93281 36.2166 9.14531 35.9799 8.80781 35.3506C8.64375 35.0459 8.60859 34.6955 8.7082 34.3639C8.80781 34.0322 9.03164 33.758 9.33516 33.5939L14.6637 30.7357C14.6719 30.7311 14.6789 30.7275 14.6871 30.7229L19.4086 28.1904C19.4273 28.1811 19.4473 28.1705 19.4648 28.16L26.6789 24.2893ZM49.8211 54.158H42.9891C43.0066 54.0467 43.0184 53.933 43.0184 53.8158V44.3916H49.7086C49.7684 44.3916 49.8211 44.4443 49.8211 44.5041V54.158ZM41.1445 53.8158C41.1445 54.001 40.9875 54.158 40.8023 54.158H32.8301V45.0467C32.8301 44.5287 32.4105 44.1104 31.8938 44.1104H22.7426C22.2258 44.1104 21.8063 44.5299 21.8063 45.0467V54.158H13.8375C13.6523 54.158 13.4953 54.001 13.4953 53.8158V36.4334L27.3211 29.0154L41.1469 36.4346V53.8158H41.1445ZM18.0574 26.7889L15.1676 28.3393V23.4314H18.0574V26.7889ZM1.87383 16.4646C1.87383 16.3791 1.94414 16.3088 2.02969 16.3088H22.4297C22.5152 16.3088 22.5855 16.3791 22.5855 16.4646V24.3596L19.9313 25.7834V23.401C19.9313 22.385 19.1027 21.5576 18.0844 21.5576H15.1383C14.1223 21.5576 13.2949 22.385 13.2949 23.401V29.3447L8.44922 31.9439C7.70391 32.3447 7.15898 33.0127 6.91406 33.8236C6.67031 34.6357 6.75586 35.4936 7.15781 36.2389C7.98398 37.7752 9.90938 38.3541 11.448 37.5303L11.6191 37.4377V53.8146C11.6191 53.9318 11.6309 54.0443 11.6484 54.1568H1.87383V16.4646ZM23.6789 54.158V45.983H30.9574V54.158H23.6789ZM58.1262 53.5568C58.1262 53.8885 57.8555 54.158 57.5215 54.158H51.6949V44.5053C51.6949 43.4096 50.8043 42.5189 49.7086 42.5189H43.0184V37.4412L43.1871 37.5314H43.1883C43.6477 37.778 44.161 37.9072 44.6824 37.9076C45.3422 37.9076 45.9891 37.7002 46.527 37.3182C46.6863 37.9357 47.2465 38.3939 47.9109 38.3939H52.548C53.3379 38.3939 53.9801 37.7506 53.9801 36.9584V32.3248C53.9801 31.5338 53.3379 30.8893 52.548 30.8893H47.9109C47.1867 30.8893 46.5879 31.4318 46.4941 32.1314C46.3969 32.0635 46.2949 32.0002 46.1883 31.9439L37.5844 27.3279H41.6801C42.4699 27.3279 43.1121 26.6846 43.1121 25.8924V21.2553C43.1121 20.4654 42.4699 19.8232 41.6801 19.8232H37.043C36.252 19.8232 35.6074 20.4654 35.6074 21.2553V25.8924C35.6074 26.0342 35.6285 26.1701 35.6672 26.299L31.4648 24.0455V6.2834C31.4648 6.03965 31.6629 5.8416 31.9066 5.8416H57.6809C57.9258 5.8416 58.1262 6.03965 58.1262 6.2834V53.5568ZM48.3527 36.5189V32.7619H52.1063V36.5189H48.3527ZM37.4812 25.4541V21.6971H41.2383V25.4541H37.4812ZM41.6801 8.7584H37.043C36.252 8.7584 35.6074 9.40059 35.6074 10.1904V14.8275C35.6074 15.6174 36.2508 16.2596 37.043 16.2596H41.6801C42.4699 16.2596 43.1121 15.6174 43.1121 14.8275V10.1904C43.1109 9.40059 42.4688 8.7584 41.6801 8.7584ZM41.2383 14.3857H37.4812V10.6322H41.2383V14.3857ZM52.5492 8.7584H47.9121C47.1223 8.7584 46.4801 9.40059 46.4801 10.1904V14.8275C46.4801 15.6174 47.1223 16.2596 47.9121 16.2596H52.5492C53.3391 16.2596 53.9813 15.6174 53.9813 14.8275V10.1904C53.9801 9.40059 53.3379 8.7584 52.5492 8.7584ZM52.1074 14.3857H48.3539V10.6322H52.1074V14.3857ZM52.5492 19.8232H47.9121C47.1223 19.8232 46.4801 20.4654 46.4801 21.2553V25.8924C46.4801 26.6834 47.1223 27.3279 47.9121 27.3279H52.5492C53.3391 27.3279 53.9813 26.6846 53.9813 25.8924V21.2553C53.9801 20.4654 53.3379 19.8232 52.5492 19.8232ZM52.1074 25.4541H48.3539V21.6971H52.1074V25.4541Z" fill="#161616"/>
</svg>
