<svg width="230" height="22" viewBox="0 0 230 22" fill="none" xmlns="http://www.w3.org/2000/svg">
<path d="M4.86 21.7992C3.28 21.7992 2.07 21.3492 1.23 20.4492C0.41 19.5492 0 18.2792 0 16.6392V5.35922C0 3.71922 0.41 2.44922 1.23 1.54922C2.07 0.649219 3.28 0.199219 4.86 0.199219C6.44 0.199219 7.64 0.649219 8.46 1.54922C9.3 2.44922 9.72 3.71922 9.72 5.35922V7.57922H6.6V5.14922C6.6 3.84922 6.05 3.19922 4.95 3.19922C3.85 3.19922 3.3 3.84922 3.3 5.14922V16.8792C3.3 18.1592 3.85 18.7992 4.95 18.7992C6.05 18.7992 6.6 18.1592 6.6 16.8792V13.6692H9.72V16.6392C9.72 18.2792 9.3 19.5492 8.46 20.4492C7.64 21.3492 6.44 21.7992 4.86 21.7992Z" fill="#6376E8"/>
<path d="M16.523 21.7992C14.903 21.7992 13.663 21.3392 12.803 20.4192C11.943 19.4992 11.513 18.1992 11.513 16.5192V5.47922C11.513 3.79922 11.943 2.49922 12.803 1.57922C13.663 0.659219 14.903 0.199219 16.523 0.199219C18.143 0.199219 19.383 0.659219 20.243 1.57922C21.103 2.49922 21.533 3.79922 21.533 5.47922V16.5192C21.533 18.1992 21.103 19.4992 20.243 20.4192C19.383 21.3392 18.143 21.7992 16.523 21.7992ZM16.523 18.7992C17.663 18.7992 18.233 18.1092 18.233 16.7292V5.26922C18.233 3.88922 17.663 3.19922 16.523 3.19922C15.383 3.19922 14.813 3.88922 14.813 5.26922V16.7292C14.813 18.1092 15.383 18.7992 16.523 18.7992Z" fill="#6376E8"/>
<path d="M23.7647 0.499218H27.0647V18.4992H32.4947V21.4992H23.7647V0.499218Z" fill="#6376E8"/>
<path d="M34.0772 0.499218H37.3772V21.4992H34.0772V0.499218Z" fill="#6376E8"/>
<path d="M38.9787 0.499218H42.3087L44.4687 16.7892H44.5287L46.6887 0.499218H49.7187L46.5387 21.4992H42.1587L38.9787 0.499218Z" fill="#6376E8"/>
<path d="M51.3037 0.499218H54.6037V21.4992H51.3037V0.499218Z" fill="#6376E8"/>
<path d="M57.0752 0.499218H61.2152L64.4252 13.0692H64.4852V0.499218H67.4252V21.4992H64.0352L60.0752 6.16922H60.0152V21.4992H57.0752V0.499218Z" fill="#6376E8"/>
<path d="M74.558 21.7992C72.958 21.7992 71.738 21.3492 70.898 20.4492C70.058 19.5292 69.638 18.2192 69.638 16.5192V5.47922C69.638 3.77922 70.058 2.47922 70.898 1.57922C71.738 0.659219 72.958 0.199219 74.558 0.199219C76.158 0.199219 77.378 0.659219 78.218 1.57922C79.058 2.47922 79.478 3.77922 79.478 5.47922V7.27922H76.358V5.26922C76.358 3.88922 75.788 3.19922 74.648 3.19922C73.508 3.19922 72.938 3.88922 72.938 5.26922V16.7592C72.938 18.1192 73.508 18.7992 74.648 18.7992C75.788 18.7992 76.358 18.1192 76.358 16.7592V12.6492H74.708V9.64922H79.478V16.5192C79.478 18.2192 79.058 19.5292 78.218 20.4492C77.378 21.3492 76.158 21.7992 74.558 21.7992Z" fill="#6376E8"/>
<path d="M90.6914 21.7992C89.0914 21.7992 87.8814 21.3492 87.0614 20.4492C86.2414 19.5292 85.8314 18.2192 85.8314 16.5192V15.3192H88.9514V16.7592C88.9514 18.1192 89.5214 18.7992 90.6614 18.7992C91.2214 18.7992 91.6414 18.6392 91.9214 18.3192C92.2214 17.9792 92.3714 17.4392 92.3714 16.6992C92.3714 15.8192 92.1714 15.0492 91.7714 14.3892C91.3714 13.7092 90.6314 12.8992 89.5514 11.9592C88.1914 10.7592 87.2414 9.67922 86.7014 8.71922C86.1614 7.73922 85.8914 6.63922 85.8914 5.41922C85.8914 3.75922 86.3114 2.47922 87.1514 1.57922C87.9914 0.659219 89.2114 0.199219 90.8114 0.199219C92.3914 0.199219 93.5814 0.659219 94.3814 1.57922C95.2014 2.47922 95.6114 3.77922 95.6114 5.47922V6.34922H92.4914V5.26922C92.4914 4.54922 92.3514 4.02922 92.0714 3.70922C91.7914 3.36922 91.3814 3.19922 90.8414 3.19922C89.7414 3.19922 89.1914 3.86922 89.1914 5.20922C89.1914 5.96922 89.3914 6.67922 89.7914 7.33922C90.2114 7.99922 90.9614 8.79922 92.0414 9.73922C93.4214 10.9392 94.3714 12.0292 94.8914 13.0092C95.4114 13.9892 95.6714 15.1392 95.6714 16.4592C95.6714 18.1792 95.2414 19.4992 94.3814 20.4192C93.5414 21.3392 92.3114 21.7992 90.6914 21.7992Z" fill="#6376E8"/>
<path d="M97.5635 0.499218H102.424C104.064 0.499218 105.294 0.939219 106.114 1.81922C106.934 2.69922 107.344 3.98922 107.344 5.68922V7.75922C107.344 9.45922 106.934 10.7492 106.114 11.6292C105.294 12.5092 104.064 12.9492 102.424 12.9492H100.864V21.4992H97.5635V0.499218ZM102.424 9.94922C102.964 9.94922 103.364 9.79922 103.624 9.49922C103.904 9.19922 104.044 8.68922 104.044 7.96922V5.47922C104.044 4.75922 103.904 4.24922 103.624 3.94922C103.364 3.64922 102.964 3.49922 102.424 3.49922H100.864V9.94922H102.424Z" fill="#6376E8"/>
<path d="M110.631 0.499218H115.101L118.521 21.4992H115.221L114.621 17.3292V17.3892H110.871L110.271 21.4992H107.211L110.631 0.499218ZM114.231 14.5392L112.761 4.15922H112.701L111.261 14.5392H114.231Z" fill="#6376E8"/>
<path d="M124.714 21.7992C123.134 21.7992 121.924 21.3492 121.084 20.4492C120.264 19.5492 119.854 18.2792 119.854 16.6392V5.35922C119.854 3.71922 120.264 2.44922 121.084 1.54922C121.924 0.649219 123.134 0.199219 124.714 0.199219C126.294 0.199219 127.494 0.649219 128.314 1.54922C129.154 2.44922 129.574 3.71922 129.574 5.35922V7.57922H126.454V5.14922C126.454 3.84922 125.904 3.19922 124.804 3.19922C123.704 3.19922 123.154 3.84922 123.154 5.14922V16.8792C123.154 18.1592 123.704 18.7992 124.804 18.7992C125.904 18.7992 126.454 18.1592 126.454 16.8792V13.6692H129.574V16.6392C129.574 18.2792 129.154 19.5492 128.314 20.4492C127.494 21.3492 126.294 21.7992 124.714 21.7992Z" fill="#6376E8"/>
<path d="M131.548 0.499218H140.548V3.49922H134.848V9.04922H139.378V12.0492H134.848V18.4992H140.548V21.4992H131.548V0.499218Z" fill="#6376E8"/>
<path d="M151.931 21.7992C150.331 21.7992 149.111 21.3492 148.271 20.4492C147.431 19.5292 147.011 18.2192 147.011 16.5192V5.47922C147.011 3.77922 147.431 2.47922 148.271 1.57922C149.111 0.659219 150.331 0.199219 151.931 0.199219C153.531 0.199219 154.751 0.659219 155.591 1.57922C156.431 2.47922 156.851 3.77922 156.851 5.47922V7.27922H153.731V5.26922C153.731 3.88922 153.161 3.19922 152.021 3.19922C150.881 3.19922 150.311 3.88922 150.311 5.26922V16.7592C150.311 18.1192 150.881 18.7992 152.021 18.7992C153.161 18.7992 153.731 18.1192 153.731 16.7592V12.6492H152.081V9.64922H156.851V16.5192C156.851 18.2192 156.431 19.5292 155.591 20.4492C154.751 21.3492 153.531 21.7992 151.931 21.7992Z" fill="#6376E8"/>
<path d="M163.77 21.7992C162.17 21.7992 160.95 21.3492 160.11 20.4492C159.27 19.5292 158.85 18.2192 158.85 16.5192V0.499218H162.15V16.7592C162.15 17.4792 162.29 17.9992 162.57 18.3192C162.87 18.6392 163.29 18.7992 163.83 18.7992C164.37 18.7992 164.78 18.6392 165.06 18.3192C165.36 17.9992 165.51 17.4792 165.51 16.7592V0.499218H168.69V16.5192C168.69 18.2192 168.27 19.5292 167.43 20.4492C166.59 21.3492 165.37 21.7992 163.77 21.7992Z" fill="#6376E8"/>
<path d="M171.04 0.499218H175.93C177.63 0.499218 178.87 0.899219 179.65 1.69922C180.43 2.47922 180.82 3.68922 180.82 5.32922V6.61922C180.82 8.79922 180.1 10.1792 178.66 10.7592V10.8192C179.46 11.0592 180.02 11.5492 180.34 12.2892C180.68 13.0292 180.85 14.0192 180.85 15.2592V18.9492C180.85 19.5492 180.87 20.0392 180.91 20.4192C180.95 20.7792 181.05 21.1392 181.21 21.4992H177.85C177.73 21.1592 177.65 20.8392 177.61 20.5392C177.57 20.2392 177.55 19.6992 177.55 18.9192V15.0792C177.55 14.1192 177.39 13.4492 177.07 13.0692C176.77 12.6892 176.24 12.4992 175.48 12.4992H174.34V21.4992H171.04V0.499218ZM175.54 9.49922C176.2 9.49922 176.69 9.32922 177.01 8.98922C177.35 8.64922 177.52 8.07922 177.52 7.27922V5.65922C177.52 4.89922 177.38 4.34922 177.1 4.00922C176.84 3.66922 176.42 3.49922 175.84 3.49922H174.34V9.49922H175.54Z" fill="#6376E8"/>
<path d="M187.82 21.7992C186.22 21.7992 185 21.3492 184.16 20.4492C183.32 19.5292 182.9 18.2192 182.9 16.5192V5.47922C182.9 3.77922 183.32 2.47922 184.16 1.57922C185 0.659219 186.22 0.199219 187.82 0.199219C189.42 0.199219 190.64 0.659219 191.48 1.57922C192.32 2.47922 192.74 3.77922 192.74 5.47922V7.27922H189.62V5.26922C189.62 3.88922 189.05 3.19922 187.91 3.19922C186.77 3.19922 186.2 3.88922 186.2 5.26922V16.7592C186.2 18.1192 186.77 18.7992 187.91 18.7992C189.05 18.7992 189.62 18.1192 189.62 16.7592V12.6492H187.97V9.64922H192.74V16.5192C192.74 18.2192 192.32 19.5292 191.48 20.4492C190.64 21.3492 189.42 21.7992 187.82 21.7992Z" fill="#6376E8"/>
<path d="M197.408 0.499218H201.878L205.298 21.4992H201.998L201.398 17.3292V17.3892H197.648L197.048 21.4992H193.988L197.408 0.499218ZM201.008 14.5392L199.538 4.15922H199.478L198.038 14.5392H201.008Z" fill="#6376E8"/>
<path d="M211.611 21.7992C209.991 21.7992 208.751 21.3392 207.891 20.4192C207.031 19.4992 206.601 18.1992 206.601 16.5192V5.47922C206.601 3.79922 207.031 2.49922 207.891 1.57922C208.751 0.659219 209.991 0.199219 211.611 0.199219C213.231 0.199219 214.471 0.659219 215.331 1.57922C216.191 2.49922 216.621 3.79922 216.621 5.47922V16.5192C216.621 18.1992 216.191 19.4992 215.331 20.4192C214.471 21.3392 213.231 21.7992 211.611 21.7992ZM211.611 18.7992C212.751 18.7992 213.321 18.1092 213.321 16.7292V5.26922C213.321 3.88922 212.751 3.19922 211.611 3.19922C210.471 3.19922 209.901 3.88922 209.901 5.26922V16.7292C209.901 18.1092 210.471 18.7992 211.611 18.7992Z" fill="#6376E8"/>
<path d="M218.853 0.499218H222.993L226.203 13.0692H226.263V0.499218H229.203V21.4992H225.813L221.853 6.16922H221.793V21.4992H218.853V0.499218Z" fill="#6376E8"/>
</svg>
