<svg width="105" height="45" viewBox="0 0 105 45" fill="none" xmlns="http://www.w3.org/2000/svg">
<path d="M6.76785 28.6468C4.73537 28.6468 3.09661 28.0127 1.85158 26.7445C0.617194 25.4762 0 23.7018 0 21.4211V8.44057C0 5.7123 0.537384 3.62348 1.61215 2.17409C2.69756 0.724695 4.45869 0 6.89555 0C8.22571 0 9.40689 0.245118 10.4391 0.735353C11.4819 1.22559 12.3013 1.96094 12.8972 2.94141C13.4931 3.91122 13.7911 5.13681 13.7911 6.61817V11.4779H8.20442V7.32155C8.20442 6.47963 8.09801 5.91479 7.88519 5.62705C7.67236 5.32864 7.34248 5.17944 6.89555 5.17944C6.37412 5.17944 6.02296 5.37127 5.84206 5.75493C5.66116 6.12794 5.57071 6.62883 5.57071 7.25761V21.3412C5.57071 22.1192 5.68244 22.668 5.90591 22.9878C6.14002 23.3075 6.4699 23.4673 6.89555 23.4673C7.3744 23.4673 7.7096 23.2702 7.90115 22.8759C8.10333 22.4815 8.20442 21.97 8.20442 21.3412V16.2737H13.8549V21.597C13.8549 24.0695 13.2324 25.8652 11.9874 26.9842C10.7424 28.0926 9.00252 28.6468 6.76785 28.6468Z" fill="#6376E8"/>
<path d="M22.4425 28.6468C20.1971 28.6468 18.4786 27.97 17.2868 26.6166C16.1056 25.2524 15.515 23.2862 15.515 20.7178V7.35353C15.515 4.94498 16.1003 3.11726 17.2708 1.87035C18.452 0.623451 20.1759 0 22.4425 0C24.709 0 26.4276 0.623451 27.5981 1.87035C28.7793 3.11726 29.3699 4.94498 29.3699 7.35353V20.7178C29.3699 23.2862 28.774 25.2524 27.5822 26.6166C26.401 27.97 24.6878 28.6468 22.4425 28.6468ZM22.4903 23.4673C23.3416 23.4673 23.7673 22.6414 23.7673 20.9895V7.25761C23.7673 5.87216 23.3523 5.17944 22.5223 5.17944C21.5858 5.17944 21.1176 5.88815 21.1176 7.30557V21.0215C21.1176 21.8954 21.224 22.5242 21.4369 22.9078C21.6497 23.2808 22.0008 23.4673 22.4903 23.4673Z" fill="#6376E8"/>
<path d="M31.6365 28.391V0.255775H37.2551V23.5952H43.0333V28.391H31.6365Z" fill="#6376E8"/>
<path d="M44.3741 28.391V0.255775H49.8012V28.391H44.3741Z" fill="#6376E8"/>
<path d="M54.6217 28.391L51.1579 0.239789H56.5052L58.5643 19.3909L60.3999 0.239789H65.7471L62.2834 28.391H54.6217Z" fill="#6376E8"/>
<path d="M67.1358 28.391V0.255775H72.5629V28.391H67.1358Z" fill="#6376E8"/>
<path d="M74.7975 28.391V0.255775H80.5757L83.1616 13.7319V0.255775H88.5886V28.391H83.0977L80.2884 14.3234V28.391H74.7975Z" fill="#6376E8"/>
<path d="M96.8729 28.6468C92.8611 28.6468 90.8552 25.7693 90.8552 20.0144V7.88106C90.8552 2.62702 93.1537 0 97.7508 0C99.6449 0 101.097 0.383662 102.108 1.15099C103.119 1.90765 103.816 3.01601 104.199 4.47606C104.582 5.93611 104.774 7.71587 104.774 9.81536H99.2831V7.32155C99.2831 6.71409 99.198 6.20787 99.0277 5.80289C98.8681 5.38726 98.5276 5.17944 98.0062 5.17944C97.357 5.17944 96.9261 5.39791 96.7132 5.83486C96.5111 6.27181 96.41 6.75139 96.41 7.2736V20.9096C96.41 21.6663 96.5057 22.2844 96.6973 22.764C96.8995 23.2329 97.2879 23.4673 97.8625 23.4673C98.4584 23.4673 98.8521 23.2329 99.0437 22.764C99.2459 22.2844 99.347 21.6556 99.347 20.8776V16.8652H97.8465V12.0054H104.71V28.391H102.46L101.502 26.0251C100.523 27.7729 98.9798 28.6468 96.8729 28.6468Z" fill="#6376E8"/>
<path d="M3.06378 45C2.47899 45 1.95353 44.8981 1.4874 44.6944C1.02974 44.4822 0.66954 44.1936 0.406809 43.8287C0.144078 43.4552 0.00847517 43.0266 0 42.5427H1.23314C1.27552 42.9586 1.44502 43.3109 1.74165 43.5995C2.04676 43.8796 2.48747 44.0196 3.06378 44.0196C3.61467 44.0196 4.0469 43.8838 4.36048 43.6122C4.68254 43.3321 4.84357 42.9756 4.84357 42.5427C4.84357 42.2032 4.75034 41.9274 4.56389 41.7152C4.37743 41.503 4.14437 41.3417 3.86468 41.2314C3.585 41.121 3.20786 41.0022 2.73325 40.8749C2.14846 40.7221 1.67809 40.5693 1.32213 40.4165C0.974646 40.2637 0.673777 40.0261 0.419522 39.7035C0.173741 39.3725 0.0508511 38.9311 0.0508511 38.3794C0.0508511 37.8956 0.173741 37.467 0.419522 37.0935C0.665302 36.72 1.00855 36.4314 1.44926 36.2277C1.89844 36.024 2.41119 35.9222 2.9875 35.9222C3.81807 35.9222 4.49609 36.1301 5.02155 36.546C5.55548 36.9619 5.85635 37.5136 5.92415 38.2012H4.65288C4.6105 37.8616 4.43252 37.5646 4.11894 37.3099C3.80536 37.0468 3.39007 36.9152 2.87309 36.9152C2.39 36.9152 1.99591 37.0426 1.6908 37.2972C1.38569 37.5433 1.23314 37.8914 1.23314 38.3412C1.23314 38.6638 1.32213 38.9269 1.50011 39.1306C1.68656 39.3343 1.91115 39.4913 2.17389 39.6017C2.44509 39.7035 2.82224 39.8224 3.30532 39.9582C3.89011 40.1194 4.36048 40.2807 4.71644 40.442C5.0724 40.5948 5.37751 40.8367 5.63176 41.1677C5.88602 41.4902 6.01314 41.9316 6.01314 42.4918C6.01314 42.9247 5.89873 43.3321 5.6699 43.7141C5.44107 44.096 5.10206 44.4058 4.65288 44.6435C4.20369 44.8812 3.67399 45 3.06378 45Z" fill="black"/>
<path d="M13.6397 38.634C13.6397 39.3725 13.3855 39.9879 12.877 40.4802C12.3769 40.964 11.6099 41.2059 10.5759 41.2059H8.87243V44.9109H7.71556V36.0367H10.5759C11.576 36.0367 12.3345 36.2786 12.8515 36.7625C13.377 37.2463 13.6397 37.8701 13.6397 38.634ZM10.5759 40.251C11.2201 40.251 11.6947 40.1109 11.9998 39.8308C12.3049 39.5507 12.4574 39.1518 12.4574 38.634C12.4574 37.5391 11.8303 36.9916 10.5759 36.9916H8.87243V40.251H10.5759Z" fill="black"/>
<path d="M20.3152 42.9374H16.4505L15.7386 44.9109H14.5182L17.7218 36.0877H19.0567L22.2476 44.9109H21.0271L20.3152 42.9374ZM19.9847 41.9953L18.3829 37.5136L16.7811 41.9953H19.9847Z" fill="black"/>
<path d="M23.2115 40.4674C23.2115 39.6017 23.4065 38.825 23.7963 38.1375C24.1862 37.4415 24.7159 36.8983 25.3854 36.5078C26.0634 36.1174 26.8135 35.9222 27.6356 35.9222C28.6018 35.9222 29.445 36.1556 30.1654 36.6224C30.8858 37.0892 31.4113 37.7513 31.7418 38.6086H30.3561C30.1103 38.0738 29.7544 37.6622 29.2883 37.3736C28.8306 37.085 28.2797 36.9407 27.6356 36.9407C27.0169 36.9407 26.4618 37.085 25.9702 37.3736C25.4787 37.6622 25.093 38.0738 24.8134 38.6086C24.5337 39.1348 24.3938 39.7545 24.3938 40.4674C24.3938 41.1719 24.5337 41.7916 24.8134 42.3263C25.093 42.8526 25.4787 43.26 25.9702 43.5486C26.4618 43.8372 27.0169 43.9814 27.6356 43.9814C28.2797 43.9814 28.8306 43.8414 29.2883 43.5613C29.7544 43.2727 30.1103 42.861 30.3561 42.3263H31.7418C31.4113 43.1751 30.8858 43.8329 30.1654 44.2997C29.445 44.7581 28.6018 44.9873 27.6356 44.9873C26.8135 44.9873 26.0634 44.7963 25.3854 44.4143C24.7159 44.0239 24.1862 43.4849 23.7963 42.7974C23.4065 42.1099 23.2115 41.3332 23.2115 40.4674Z" fill="black"/>
<path d="M34.6208 36.9789V39.9454H37.8498V40.9003H34.6208V43.956H38.2312V44.9109H33.4639V36.024H38.2312V36.9789H34.6208Z" fill="black"/>
<path d="M50.0833 38.6086C49.8375 38.0908 49.4815 37.6919 49.0154 37.4118C48.5493 37.1232 48.0069 36.9789 47.3882 36.9789C46.7695 36.9789 46.2101 37.1232 45.7101 37.4118C45.2185 37.6919 44.8287 38.0993 44.5405 38.634C44.2608 39.1603 44.121 39.7714 44.121 40.4674C44.121 41.1635 44.2608 41.7746 44.5405 42.3008C44.8287 42.8271 45.2185 43.2345 45.7101 43.5231C46.2101 43.8032 46.7695 43.9432 47.3882 43.9432C48.2526 43.9432 48.9646 43.6844 49.5239 43.1666C50.0833 42.6488 50.4096 41.9486 50.5028 41.0658H46.9686V40.1237H51.7359V41.0149C51.6681 41.7449 51.4393 42.4154 51.0494 43.0266C50.6596 43.6292 50.1468 44.1088 49.5112 44.4653C48.8756 44.8133 48.1679 44.9873 47.3882 44.9873C46.5661 44.9873 45.816 44.7963 45.138 44.4143C44.46 44.0239 43.9218 43.4849 43.5235 42.7974C43.1336 42.1099 42.9387 41.3332 42.9387 40.4674C42.9387 39.6017 43.1336 38.825 43.5235 38.1375C43.9218 37.4415 44.46 36.9025 45.138 36.5206C45.816 36.1301 46.5661 35.9349 47.3882 35.9349C48.3289 35.9349 49.1595 36.1683 49.8799 36.6351C50.6087 37.102 51.1384 37.7598 51.469 38.6086H50.0833Z" fill="black"/>
<path d="M54.397 36.0367V41.6515C54.397 42.4409 54.5877 43.0266 54.9691 43.4085C55.3589 43.7905 55.8971 43.9814 56.5836 43.9814C57.2616 43.9814 57.7913 43.7905 58.1727 43.4085C58.5625 43.0266 58.7575 42.4409 58.7575 41.6515V36.0367H59.9143V41.6388C59.9143 42.3772 59.766 43.0011 59.4694 43.5104C59.1727 44.0112 58.7702 44.3846 58.2617 44.6308C57.7616 44.8769 57.198 45 56.5709 45C55.9437 45 55.3759 44.8769 54.8674 44.6308C54.3673 44.3846 53.969 44.0112 53.6724 43.5104C53.3842 43.0011 53.2401 42.3772 53.2401 41.6388V36.0367H54.397Z" fill="black"/>
<path d="M66.5098 44.9109L64.3995 41.2823H63.0011V44.9109H61.8442V36.0367H64.7046C65.3741 36.0367 65.9377 36.1513 66.3954 36.3805C66.8615 36.6097 67.209 36.9195 67.4378 37.3099C67.6666 37.7004 67.7811 38.146 67.7811 38.6468C67.7811 39.2579 67.6031 39.7969 67.2471 40.2637C66.8996 40.7306 66.3742 41.0404 65.6707 41.1932L67.8955 44.9109H66.5098ZM63.0011 40.3529H64.7046C65.3317 40.3529 65.8021 40.2001 66.1157 39.8945C66.4293 39.5805 66.5861 39.1645 66.5861 38.6468C66.5861 38.1205 66.4293 37.7131 66.1157 37.4245C65.8106 37.1359 65.3402 36.9916 64.7046 36.9916H63.0011V40.3529Z" fill="black"/>
<path d="M76.291 38.6086C76.0452 38.0908 75.6892 37.6919 75.2231 37.4118C74.757 37.1232 74.2145 36.9789 73.5959 36.9789C72.9772 36.9789 72.4178 37.1232 71.9178 37.4118C71.4262 37.6919 71.0364 38.0993 70.7482 38.634C70.4685 39.1603 70.3287 39.7714 70.3287 40.4674C70.3287 41.1635 70.4685 41.7746 70.7482 42.3008C71.0364 42.8271 71.4262 43.2345 71.9178 43.5231C72.4178 43.8032 72.9772 43.9432 73.5959 43.9432C74.4603 43.9432 75.1722 43.6844 75.7316 43.1666C76.291 42.6488 76.6173 41.9486 76.7105 41.0658H73.1763V40.1237H77.9436V41.0149C77.8758 41.7449 77.647 42.4154 77.2571 43.0266C76.8673 43.6292 76.3545 44.1088 75.7189 44.4653C75.0833 44.8133 74.3756 44.9873 73.5959 44.9873C72.7738 44.9873 72.0237 44.7963 71.3457 44.4143C70.6677 44.0239 70.1295 43.4849 69.7312 42.7974C69.3413 42.1099 69.1464 41.3332 69.1464 40.4674C69.1464 39.6017 69.3413 38.825 69.7312 38.1375C70.1295 37.4415 70.6677 36.9025 71.3457 36.5206C72.0237 36.1301 72.7738 35.9349 73.5959 35.9349C74.5366 35.9349 75.3672 36.1683 76.0876 36.6351C76.8164 37.102 77.3461 37.7598 77.6767 38.6086H76.291Z" fill="black"/>
<path d="M84.7109 42.9374H80.8462L80.1343 44.9109H78.9139L82.1175 36.0877H83.4523L86.6432 44.9109H85.4228L84.7109 42.9374ZM84.3804 41.9953L82.7786 37.5136L81.1767 41.9953H84.3804Z" fill="black"/>
<path d="M92.0567 45C91.2346 45 90.4846 44.809 89.8065 44.4271C89.1285 44.0366 88.5903 43.4976 88.192 42.8101C87.8022 42.1141 87.6072 41.3332 87.6072 40.4674C87.6072 39.6017 87.8022 38.825 88.192 38.1375C88.5903 37.4415 89.1285 36.9025 89.8065 36.5206C90.4846 36.1301 91.2346 35.9349 92.0567 35.9349C92.8873 35.9349 93.6416 36.1301 94.3196 36.5206C94.9976 36.9025 95.5315 37.4372 95.9214 38.1248C96.3112 38.8123 96.5062 39.5932 96.5062 40.4674C96.5062 41.3417 96.3112 42.1226 95.9214 42.8101C95.5315 43.4976 94.9976 44.0366 94.3196 44.4271C93.6416 44.809 92.8873 45 92.0567 45ZM92.0567 43.9942C92.6754 43.9942 93.2305 43.8499 93.7221 43.5613C94.2221 43.2727 94.612 42.861 94.8917 42.3263C95.1798 41.7916 95.3239 41.1719 95.3239 40.4674C95.3239 39.7545 95.1798 39.1348 94.8917 38.6086C94.612 38.0738 94.2263 37.6622 93.7348 37.3736C93.2432 37.085 92.6839 36.9407 92.0567 36.9407C91.4295 36.9407 90.8702 37.085 90.3786 37.3736C89.8871 37.6622 89.4972 38.0738 89.209 38.6086C88.9294 39.1348 88.7895 39.7545 88.7895 40.4674C88.7895 41.1719 88.9294 41.7916 89.209 42.3263C89.4972 42.861 89.8871 43.2727 90.3786 43.5613C90.8787 43.8499 91.438 43.9942 92.0567 43.9942Z" fill="black"/>
<path d="M105 44.9109H103.843L99.1903 37.8447V44.9109H98.0334V36.024H99.1903L103.843 43.0775V36.024H105V44.9109Z" fill="black"/>
</svg>
