<svg width="60" height="60" viewBox="0 0 60 60" fill="none" xmlns="http://www.w3.org/2000/svg">
<g clip-path="url(#clip0_3407_15035)">
<g clip-path="url(#clip1_3407_15035)">
<path d="M47.3344 41.4561V21.8623C47.3398 18.9746 46.621 16.1317 45.2438 13.5936C44.8455 9.87511 43.0951 6.43254 40.3251 3.92004C37.555 1.40753 33.9585 0.000212818 30.219 -0.0344985C26.4794 -0.0692099 22.8574 1.27111 20.0412 3.73176C17.225 6.19241 15.411 9.6019 14.9438 13.3123C13.4499 15.9141 12.6644 18.8622 12.6656 21.8623V41.4561C10.8778 42.4443 9.40507 43.9169 8.41667 45.7046C7.42828 47.4924 6.96433 49.5227 7.07815 51.5623V59.1373C7.07815 59.386 7.17692 59.6244 7.35273 59.8002C7.52855 59.9761 7.76701 60.0748 8.01565 60.0748H51.9656C52.2143 60.0748 52.4527 59.9761 52.6286 59.8002C52.8044 59.6244 52.9031 59.386 52.9031 59.1373V51.5623C53.0188 49.5246 52.5576 47.4956 51.5726 45.7081C50.5877 43.9205 49.1188 42.4468 47.3344 41.4561ZM44.0625 22.9123L45 18.4498C45 18.3561 45 18.253 45.0469 18.1592C45.3466 19.371 45.5008 20.6141 45.5063 21.8623V40.5186C43.2891 39.6501 40.9854 39.0215 38.6344 38.6436L37.1063 38.3248V36.2342C38.3561 34.8221 39.3349 33.1917 39.9938 31.4248C40.3659 31.2098 40.7201 30.9652 41.0532 30.6936C41.3985 31.0132 41.8483 31.1965 42.3188 31.2092C43.8844 31.2092 45.0563 29.203 45.0563 26.5217C45.1075 25.2446 44.7602 23.9832 44.0625 22.9123ZM30.75 28.003C30.5493 27.9299 30.3347 27.9029 30.1221 27.924C29.9095 27.9451 29.7044 28.0138 29.5219 28.1248C29.3007 28.26 29.1126 28.443 28.9715 28.6604C28.8303 28.8778 28.7397 29.124 28.7063 29.3811L28.4625 30.9373C28.4245 31.1834 28.4381 31.4348 28.5027 31.6753C28.5673 31.9158 28.6813 32.1402 28.8375 32.3342C28.9685 32.4922 29.1314 32.6207 29.3157 32.7112C29.4999 32.8017 29.7012 32.8521 29.9063 32.8592L32.6532 32.9155C32.9157 32.9099 33.1724 32.8372 33.3989 32.7043C33.6254 32.5713 33.8141 32.3826 33.9469 32.1561C34.6295 32.2923 35.3228 32.3676 36.0188 32.3811C36.2873 32.3951 36.5565 32.3951 36.825 32.3811C37.0969 32.3811 37.35 32.3155 37.6031 32.278C37.0682 33.3741 36.3695 34.3825 35.5313 35.2686C34.822 36.0363 33.9615 36.649 33.0039 37.068C32.0464 37.487 31.0124 37.7034 29.9672 37.7034C28.922 37.7034 27.888 37.487 26.9305 37.068C25.9729 36.649 25.1124 36.0363 24.4031 35.2686C22.4156 33.1873 21.15 29.9998 20.625 26.6061C20.6188 25.9736 20.537 25.3441 20.3813 24.7311C20.3063 23.8873 20.2594 23.0342 20.2594 22.1905V21.5623L25.1063 17.2311C27.1031 18.9842 33.5438 24.0186 39.7969 23.2311C39.7174 25.5617 39.307 27.8691 38.5781 30.0842C37.9819 30.3372 37.3488 30.4923 36.7032 30.5436C35.916 30.6058 35.1241 30.5585 34.35 30.403C34.3497 30.0951 34.2612 29.7938 34.0951 29.5347C33.9289 29.2755 33.6921 29.0693 33.4125 28.9405L30.75 28.003ZM32.5406 30.5998L32.4657 31.1342L30.2906 31.078L30.4781 29.8405L32.5406 30.5998ZM26.5969 49.1155L24.375 47.1655C24.2481 47.0561 24.0942 46.9828 23.9293 46.9531C23.7644 46.9235 23.5946 46.9385 23.4375 46.9967L17.8125 49.003C18.998 45.8035 20.9258 42.9311 23.4375 40.6217L26.5969 49.1155ZM24.7219 38.803V37.8373C26.2735 38.9351 28.1275 39.5246 30.0281 39.5246C31.9288 39.5246 33.7828 38.9351 35.3344 37.8373V38.8592L30 53.0342L24.7219 38.803ZM36.5625 40.6217C39.0759 42.9297 41.004 45.8025 42.1875 49.003L36.5625 46.9967C36.4054 46.9385 36.2356 46.9235 36.0707 46.9531C35.9059 46.9828 35.752 47.0561 35.625 47.1655L33.4406 49.0405L36.5625 40.6217ZM41.3906 26.5592C41.3906 24.6373 42.1313 23.7467 42.3281 23.7467C42.525 23.7467 43.2656 24.6842 43.2656 26.5592C43.2656 28.4342 42.5344 29.3717 42.3281 29.3717C42.1219 29.3717 42.1406 29.2592 41.9907 29.0342C41.9601 28.9436 41.9158 28.8583 41.8594 28.7811C41.5394 28.082 41.3854 27.3183 41.4094 26.5498L41.3906 26.5592ZM30.0844 1.81858C32.6576 1.81665 35.1766 2.55791 37.3386 3.95325C39.5007 5.3486 41.2137 7.33865 42.2719 9.6842L42.2156 9.62796C39.0136 6.42128 34.6816 4.59847 30.1502 4.55114C25.6188 4.50381 21.2496 6.23573 17.9813 9.37483C19.0872 7.10714 20.8084 5.19613 22.9486 3.86C25.0887 2.52387 27.5614 1.81647 30.0844 1.81858ZM16.7063 13.903C17.918 11.8802 19.5752 10.1604 21.5516 8.87438C23.5281 7.58841 25.7718 6.77012 28.1121 6.48176C30.4523 6.19341 32.8276 6.44258 35.0571 7.21033C37.2866 7.97808 39.3116 9.24418 40.9781 10.9123C41.9539 11.8849 42.7928 12.9856 43.4719 14.1842C43.587 15.4828 43.5048 16.7914 43.2281 18.0655L42.4125 21.9092H42.3281C42.0644 21.9159 41.8053 21.9799 41.5688 22.0967C41.5482 21.8491 41.4302 21.6198 41.2407 21.4592C41.1313 21.3757 41.0049 21.3173 40.8704 21.2881C40.7359 21.259 40.5967 21.2598 40.4625 21.2905C33.6656 22.9592 25.7625 15.4686 25.6875 15.3936C25.5164 15.2433 25.2965 15.1604 25.0688 15.1604C24.841 15.1604 24.6211 15.2433 24.45 15.3936L18.75 20.4842C18.5835 20.6357 18.477 20.842 18.45 21.0655C18.4315 21.4183 18.4315 21.7719 18.45 22.1248C18.2717 22.0649 18.085 22.0332 17.8969 22.0311H17.8125L16.9688 18.0561C16.6683 16.6934 16.5798 15.2926 16.7063 13.903ZM18.75 26.8123C18.75 28.6873 18.0094 29.5311 17.8125 29.5311C17.6156 29.5311 16.875 28.5936 16.875 26.7186C16.875 24.8436 17.6156 23.9061 17.8125 23.9061C18.0094 23.9061 18.2719 24.2811 18.5063 25.0405C18.5813 25.6217 18.6625 26.2123 18.75 26.8123ZM14.475 21.8623C14.4799 20.487 14.6691 19.1186 15.0375 17.7936C15.0375 18.0092 15.1031 18.2248 15.1406 18.4498L16.0781 23.0342C15.3651 24.1168 15.0079 25.395 15.0563 26.6905C15.0563 29.3905 16.2094 31.378 17.7938 31.378C18.1458 31.3624 18.489 31.2623 18.7941 31.086C19.0993 30.9098 19.3575 30.6626 19.5469 30.3655C20.2067 32.5438 21.3219 34.5571 22.8188 36.2717V38.3155L21.3094 38.6342C18.9584 39.0121 16.6547 39.6407 14.4375 40.5092L14.475 21.8623ZM51.0375 54.2155V58.1811H8.94377V51.5061C8.94377 47.3811 10.5656 44.653 14.2781 42.6561C16.4119 41.6285 18.6818 40.9118 21.0188 40.528C18.4045 43.2391 16.546 46.5877 15.6281 50.2405C15.5948 50.3991 15.6032 50.5637 15.6525 50.7182C15.7018 50.8726 15.7903 51.0117 15.9094 51.1217C16.0314 51.2393 16.1851 51.3188 16.3516 51.3504C16.5181 51.382 16.6902 51.3645 16.8469 51.2998L23.6344 48.8905L28.0125 52.6967L29.0625 55.6592C29.1358 55.8445 29.2661 56.0016 29.4347 56.1078C29.6033 56.214 29.8013 56.2638 30 56.2498C30.1988 56.2638 30.3968 56.214 30.5654 56.1078C30.7339 56.0016 30.8643 55.8445 30.9375 55.6592L32.0625 52.6498L36.375 48.8998L43.1625 51.3092C43.3192 51.3738 43.4913 51.3914 43.6578 51.3598C43.8243 51.3282 43.978 51.2487 44.1 51.1311C44.2191 51.021 44.3076 50.882 44.3569 50.7276C44.4062 50.5731 44.4146 50.4085 44.3813 50.2498C43.4713 46.5981 41.619 43.2491 39.0094 40.5373C41.3527 40.9197 43.6291 41.6364 45.7688 42.6655C49.5188 44.6623 51.1313 47.353 51.1031 51.5155L51.0375 54.2155Z" fill="#6376E8"/>
</g>
</g>
<defs>
<clipPath id="clip0_3407_15035">
<rect width="60" height="60" fill="white"/>
</clipPath>
<clipPath id="clip1_3407_15035">
<rect width="60" height="60" fill="white"/>
</clipPath>
</defs>
</svg>
