<svg width="20" height="20" viewBox="0 0 20 20" fill="none" xmlns="http://www.w3.org/2000/svg">
<g clip-path="url(#clip0_3433_16730)">
<path d="M6.66667 18.3333C6.22498 18.3317 5.80169 18.1563 5.48833 17.845L0.488333 12.845C0.178333 12.5342 0 12.105 0 11.6667C0 11.2283 0.178333 10.7992 0.488333 10.4883L7.98833 2.98833C8.30169 2.67706 8.72498 2.50164 9.16667 2.5H14.1667C14.2742 2.5 14.3758 2.5125 14.4758 2.5375C15.2342 2.65333 15.8333 3.35667 15.8333 4.16667V9.16667C15.8333 9.605 15.655 10.0342 15.345 10.345L7.845 17.845C7.53164 18.1563 7.10835 18.3317 6.66667 18.3333ZM9.16667 3.33333C8.9475 3.33333 8.73333 3.4225 8.5775 3.5775L1.0775 11.0775C0.9225 11.2333 0.833333 11.4475 0.833333 11.6667C0.833333 11.8858 0.9225 12.1 1.0775 12.2558L6.0775 17.2558C6.38833 17.5667 6.94417 17.5667 7.255 17.2558L14.755 9.75583C14.9108 9.6 15 9.38583 15 9.16667V4.16667C14.9999 3.97148 14.9306 3.78265 14.8044 3.63374C14.6782 3.48482 14.5034 3.38547 14.3108 3.35333C14.2638 3.34049 14.2154 3.33377 14.1667 3.33333H9.16667Z" fill="black"/>
<path d="M18.2748 20.0005H10.8915C10.4393 20.0016 10.0041 19.8281 9.6765 19.5164C9.51694 19.3632 9.38962 19.1797 9.30203 18.9767C9.21445 18.7736 9.16837 18.555 9.1665 18.3339V15.5172C9.1665 15.4064 9.21067 15.3005 9.28817 15.2222L14.7548 9.75554C14.9107 9.60054 14.9998 9.38637 14.9998 9.16721V4.16721C14.9997 3.97202 14.9304 3.78319 14.8043 3.63428C14.6781 3.48536 14.5032 3.38601 14.3107 3.35387C14.2133 3.33899 14.1243 3.29009 14.0596 3.21585C13.9948 3.14161 13.9585 3.04682 13.957 2.94832C13.9555 2.84983 13.9889 2.75398 14.0514 2.6778C14.1139 2.60163 14.2013 2.55004 14.2982 2.53221C14.8398 2.43221 15.4032 2.60054 15.7982 2.98471L19.4882 6.52471C19.814 6.83971 19.9998 7.27137 19.9998 7.70887V18.3339C19.998 18.555 19.9519 18.7736 19.8643 18.9767C19.7767 19.1797 19.6494 19.3632 19.4898 19.5164C19.1715 19.8247 18.729 20.0005 18.2748 20.0005ZM9.99984 15.6897V18.3339C9.99984 18.5472 10.0932 18.7605 10.2565 18.918C10.4282 19.0797 10.6557 19.1689 10.8915 19.1672H18.2748C18.5148 19.1672 18.7457 19.0764 18.9098 18.918C18.9894 18.8427 19.0532 18.7522 19.0973 18.6519C19.1413 18.5516 19.1649 18.4434 19.1665 18.3339V7.70887C19.1649 7.5993 19.1413 7.49116 19.0973 7.39083C19.0532 7.2905 18.9894 7.20001 18.9098 7.12471L15.8332 4.17304V9.16721C15.8332 9.60554 15.6548 10.0347 15.3448 10.3455L9.99984 15.6897Z" fill="black"/>
<path d="M12.9165 6.66602C12.2273 6.66602 11.6665 6.10518 11.6665 5.41602C11.6665 4.72685 12.2273 4.16602 12.9165 4.16602C13.6057 4.16602 14.1665 4.72685 14.1665 5.41602C14.1665 6.10518 13.6057 6.66602 12.9165 6.66602ZM12.9165 4.99935C12.806 4.99935 12.7 5.04325 12.6219 5.12139C12.5437 5.19953 12.4998 5.30551 12.4998 5.41602C12.4998 5.52652 12.5437 5.6325 12.6219 5.71064C12.7 5.78878 12.806 5.83268 12.9165 5.83268C13.027 5.83268 13.133 5.78878 13.2111 5.71064C13.2893 5.6325 13.3332 5.52652 13.3332 5.41602C13.3332 5.30551 13.2893 5.19953 13.2111 5.12139C13.133 5.04325 13.027 4.99935 12.9165 4.99935Z" fill="black"/>
<path d="M17.9167 5.83333C17.8062 5.83333 17.7002 5.78944 17.622 5.7113C17.5439 5.63315 17.5 5.52717 17.5 5.41667V2.91667C17.5 1.76833 16.565 0.833333 15.4167 0.833333C14.2683 0.833333 13.3333 1.76833 13.3333 2.91667V4.58333C13.3333 4.69384 13.2894 4.79982 13.2113 4.87796C13.1332 4.9561 13.0272 5 12.9167 5C12.8062 5 12.7002 4.9561 12.622 4.87796C12.5439 4.79982 12.5 4.69384 12.5 4.58333V2.91667C12.5 1.30833 13.8083 0 15.4167 0C17.025 0 18.3333 1.30833 18.3333 2.91667V5.41667C18.3333 5.52717 18.2894 5.63315 18.2113 5.7113C18.1332 5.78944 18.0272 5.83333 17.9167 5.83333Z" fill="black"/>
</g>
<defs>
<clipPath id="clip0_3433_16730">
<rect width="20" height="20" fill="white"/>
</clipPath>
</defs>
</svg>
