<svg width="60" height="60" viewBox="0 0 60 60" fill="none" xmlns="http://www.w3.org/2000/svg">
<g clip-path="url(#clip0_6090_21469)">
<path d="M30.0009 42.8425C28.1612 42.8425 26.3628 42.297 24.8331 41.2749C23.3035 40.2528 22.1113 38.8001 21.4072 37.1004C20.7032 35.4008 20.519 33.5305 20.878 31.7262C21.2369 29.9218 22.1228 28.2644 23.4237 26.9636C24.7246 25.6627 26.382 24.7768 28.1863 24.418C29.9907 24.0591 31.861 24.2433 33.5606 24.9474C35.2603 25.6514 36.713 26.8437 37.735 28.3734C38.7571 29.903 39.3026 31.7014 39.3025 33.5411C39.2997 36.0072 38.3187 38.3714 36.575 40.1152C34.8312 41.8589 32.4669 42.8398 30.0009 42.8425ZM30.0009 26.5832C28.6247 26.5832 27.2795 26.9913 26.1353 27.7559C24.991 28.5204 24.0992 29.6071 23.5726 30.8785C23.046 32.1499 22.9082 33.5489 23.1767 34.8986C23.4451 36.2483 24.1078 37.488 25.0809 38.4611C26.054 39.4342 27.2937 40.0969 28.6434 40.3653C29.9931 40.6338 31.3921 40.496 32.6635 39.9694C33.9349 39.4428 35.0216 38.551 35.7861 37.4067C36.5507 36.2625 36.9588 34.9173 36.9588 33.5411C36.9566 31.6964 36.2229 29.9279 34.9185 28.6235C33.6141 27.3191 31.8456 26.5854 30.0009 26.5832Z" fill="#161616"/>
<path d="M42.1937 59.9148H17.8047C17.4939 59.9148 17.1958 59.7913 16.976 59.5715C16.7563 59.3518 16.6328 59.0537 16.6328 58.7429V53.8649C16.6328 50.3199 18.0411 46.9201 20.5477 44.4134C23.0544 41.9067 26.4542 40.4984 29.9992 40.4984C33.5442 40.4984 36.944 41.9067 39.4507 44.4134C41.9574 46.9201 43.3656 50.3199 43.3656 53.8649V58.7429C43.3656 59.0537 43.2422 59.3518 43.0224 59.5715C42.8026 59.7913 42.5046 59.9148 42.1937 59.9148ZM18.9766 57.571H41.0219V53.8649C41.0219 50.9415 39.8606 48.1378 37.7934 46.0707C35.7263 44.0035 32.9226 42.8422 29.9992 42.8422C27.0758 42.8422 24.2722 44.0035 22.205 46.0707C20.1379 48.1378 18.9766 50.9415 18.9766 53.8649V57.571ZM46.6328 28.3845C44.7931 28.3846 42.9947 27.8391 41.465 26.817C39.9354 25.795 38.7431 24.3423 38.0391 22.6426C37.335 20.943 37.1508 19.0727 37.5096 17.2684C37.8685 15.464 38.7544 13.8066 40.0552 12.5057C41.3561 11.2048 43.0135 10.3189 44.8178 9.96C46.6222 9.60107 48.4924 9.78527 50.1921 10.4893C51.8918 11.1933 53.3445 12.3855 54.3666 13.9152C55.3887 15.4448 55.9342 17.2432 55.9342 19.0829C55.9314 21.5489 54.9505 23.9131 53.2068 25.6569C51.463 27.4007 49.0988 28.3816 46.6328 28.3845ZM46.6328 12.125C45.2567 12.125 43.9114 12.533 42.7672 13.2975C41.6229 14.062 40.7311 15.1487 40.2044 16.4201C39.6777 17.6914 39.5399 19.0905 39.8084 20.4402C40.0768 21.7899 40.7395 23.0297 41.7125 24.0028C42.6856 24.9759 43.9254 25.6386 45.2751 25.9071C46.6248 26.1756 48.0238 26.0378 49.2952 25.5112C50.5666 24.9846 51.6533 24.0927 52.4178 22.9485C53.1824 21.8043 53.5905 20.459 53.5905 19.0829C53.5884 17.2382 52.8547 15.4697 51.5503 14.1653C50.246 12.8609 48.4775 12.1272 46.6328 12.125Z" fill="#161616"/>
<path d="M58.8298 45.4569H42.8423C42.5315 45.4569 42.2335 45.3334 42.0137 45.1136C41.7939 44.8939 41.6705 44.5958 41.6705 44.285C41.6705 43.9742 41.7939 43.6761 42.0137 43.4564C42.2335 43.2366 42.5315 43.1131 42.8423 43.1131H57.6579V39.4072C57.6573 37.482 57.1526 35.5906 56.1942 33.921C55.2357 32.2514 53.8568 30.8619 52.1946 29.8906C50.5324 28.9194 48.6449 28.4002 46.7198 28.3848C44.7947 28.3695 42.8991 28.8584 41.2216 29.803C40.9511 29.9544 40.6316 29.9925 40.3331 29.9089C40.0345 29.8252 39.7813 29.6267 39.6288 29.3568C39.4763 29.0868 39.437 28.7675 39.5195 28.4686C39.602 28.1697 39.7996 27.9158 40.069 27.7623C42.1031 26.6163 44.4018 26.0229 46.7364 26.0412C49.071 26.0594 51.3601 26.6887 53.376 27.8664C55.3919 29.0441 57.0642 30.7292 58.2267 32.7539C59.3891 34.7787 60.001 37.0725 60.0016 39.4072V44.285C60.0016 44.5958 59.8782 44.8939 59.6584 45.1136C59.4386 45.3334 59.1406 45.4569 58.8298 45.4569ZM13.3681 28.3845C11.5284 28.3845 9.72998 27.839 8.20034 26.8169C6.67069 25.7948 5.47847 24.3421 4.77446 22.6425C4.07044 20.9428 3.88623 19.0726 4.24514 17.2682C4.60404 15.4639 5.48994 13.8065 6.7908 12.5056C8.09166 11.2048 9.74905 10.3189 11.5534 9.95998C13.3577 9.60108 15.228 9.78528 16.9276 10.4893C18.6273 11.1933 20.08 12.3855 21.1021 13.9152C22.1242 15.4448 22.6697 17.2432 22.6697 19.0829C22.6668 21.549 21.6859 23.9132 19.9422 25.657C18.1984 27.4008 15.8341 28.3817 13.3681 28.3845ZM13.3681 12.125C11.9919 12.125 10.6467 12.5331 9.50245 13.2976C8.35823 14.0622 7.46642 15.1488 6.9398 16.4202C6.41317 17.6916 6.27538 19.0906 6.54385 20.4403C6.81233 21.79 7.475 23.0298 8.44808 24.0029C9.42116 24.9759 10.6609 25.6386 12.0106 25.9071C13.3603 26.1756 14.7593 26.0378 16.0307 25.5111C17.3021 24.9845 18.3888 24.0927 19.1533 22.9485C19.9179 21.8043 20.3259 20.459 20.3259 19.0829C20.3238 17.2382 19.5901 15.4697 18.2857 14.1653C16.9813 12.8609 15.2128 12.1271 13.3681 12.125Z" fill="#161616"/>
<path d="M17.1593 45.457H1.17188C0.861074 45.457 0.563003 45.3335 0.343234 45.1137C0.123465 44.894 0 44.5959 0 44.2851L0 39.4073C0.000608108 37.0726 0.612565 34.7788 1.77498 32.754C2.9374 30.7293 4.60975 29.0442 6.62563 27.8665C8.64151 26.6888 10.9306 26.0595 13.2653 26.0412C15.5999 26.023 17.8986 26.6164 19.9327 27.7624C20.2033 27.9152 20.4021 28.1694 20.4853 28.4688C20.5686 28.7683 20.5294 29.0885 20.3766 29.3591C20.2237 29.6298 19.9696 29.8286 19.6701 29.9118C19.3706 29.9951 19.0504 29.9559 18.7798 29.8031C17.1023 28.8585 15.2067 28.3696 13.2817 28.385C11.3566 28.4005 9.46915 28.9196 7.807 29.8909C6.14486 30.8621 4.76597 32.2516 3.8075 33.9212C2.84903 35.5907 2.34438 37.4822 2.34375 39.4073V43.1132H17.1593C17.4701 43.1132 17.7682 43.2367 17.9879 43.4564C18.2077 43.6762 18.3312 43.9743 18.3312 44.2851C18.3312 44.5959 18.2077 44.894 17.9879 45.1137C17.7682 45.3335 17.4701 45.457 17.1593 45.457ZM30 18.6834C28.1603 18.6834 26.3619 18.1378 24.8323 17.1158C23.3026 16.0937 22.1104 14.641 21.4064 12.9413C20.7024 11.2417 20.5182 9.3714 20.8771 7.56706C21.236 5.76272 22.1219 4.10533 23.4227 2.80447C24.7236 1.50361 26.381 0.617717 28.1853 0.258811C29.9897 -0.100095 31.8599 0.0841084 33.5596 0.788128C35.2592 1.49215 36.712 2.68436 37.734 4.21401C38.7561 5.74366 39.3016 7.54203 39.3016 9.38172C39.2988 11.8478 38.3179 14.212 36.5741 15.9558C34.8303 17.6996 32.4661 18.6805 30 18.6834ZM30 2.42383C28.6239 2.42383 27.2786 2.83191 26.1344 3.59645C24.9902 4.36099 24.0984 5.44767 23.5717 6.71905C23.0451 7.99044 22.9073 9.38944 23.1758 10.7391C23.4443 12.0888 24.1069 13.3286 25.08 14.3017C26.0531 15.2748 27.2929 15.9374 28.6426 16.2059C29.9923 16.4744 31.3913 16.3366 32.6627 15.81C33.9341 15.2834 35.0207 14.3915 35.7853 13.2473C36.5498 12.1031 36.9579 10.7579 36.9579 9.38172C36.9558 7.53702 36.222 5.76848 34.9176 4.46408C33.6132 3.15968 31.8447 2.42594 30 2.42383Z" fill="#161616"/>
</g>
<defs>
<clipPath id="clip0_6090_21469">
<rect width="60" height="60" fill="white"/>
</clipPath>
</defs>
</svg>
