<svg width="30" height="30" viewBox="0 0 30 30" fill="none" xmlns="http://www.w3.org/2000/svg">
<path d="M12.0741 24.1391C14.7555 24.1392 17.3603 23.2444 19.4757 21.5965L27.4567 29.5787C28.0529 30.1546 29.0029 30.138 29.5787 29.5417C30.1404 28.9601 30.1404 28.0379 29.5787 27.4563L21.5978 19.4741C25.6864 14.2102 24.7343 6.62787 19.4711 2.53861C14.2079 -1.55065 6.62687 -0.598398 2.53823 4.66558C-1.55041 9.92956 -0.598308 17.5118 4.66487 21.6011C6.78379 23.2474 9.3909 24.1405 12.0741 24.1391ZM5.66144 5.65768C9.20308 2.11544 14.9452 2.11538 18.4869 5.65755C22.0286 9.19973 22.0287 14.9427 18.487 18.485C14.9454 22.0272 9.20327 22.0273 5.66157 18.4851L5.66144 18.485C2.1198 14.9686 2.09894 9.24654 5.61477 5.70436L5.66144 5.65768Z" fill="white"/>
</svg>
