<svg width="60" height="60" viewBox="0 0 60 60" fill="none" xmlns="http://www.w3.org/2000/svg">
<path d="M35.625 58.125C35.4255 58.125 35.2312 58.0614 35.0703 57.9434C34.9095 57.8253 34.7905 57.6591 34.7306 57.4688C34.6763 57.3469 34.35 57.0713 34.125 56.9381C31.3313 55.3013 28.1737 48.0638 27.8231 47.2444L24.8588 35.8031C24.8077 35.6061 24.8222 35.3978 24.9 35.2097C24.9778 35.0217 25.1147 34.864 25.29 34.7606C27.1181 33.6862 28.5262 33.7819 29.3925 34.0519C30.6056 34.4325 31.6031 35.3963 32.2706 36.84L33.75 39.93V22.5C33.75 20.4319 35.4319 18.75 37.5 18.75C39.5681 18.75 41.25 20.4319 41.25 22.5V32.3794C42.1012 31.8878 43.1114 31.7501 44.0632 31.9959C45.0149 32.2418 45.8321 32.8514 46.3388 33.6937C46.9913 33.1444 47.8331 32.8125 48.75 32.8125C50.3831 32.8125 51.7763 33.8625 52.29 35.3212C52.8548 34.945 53.5111 34.7288 54.1889 34.6959C54.8668 34.6629 55.541 34.8143 56.1396 35.1341C56.7383 35.4538 57.239 35.9298 57.5886 36.5115C57.9382 37.0932 58.1236 37.7588 58.125 38.4375V53.4375C58.125 56.0213 56.0231 58.125 53.4375 58.125H44.0625C43.8139 58.125 43.5754 58.0262 43.3996 57.8504C43.2238 57.6746 43.125 57.4361 43.125 57.1875C43.125 56.9389 43.2238 56.7004 43.3996 56.5246C43.5754 56.3488 43.8139 56.25 44.0625 56.25H53.4375C54.9881 56.25 56.25 54.9881 56.25 53.4375V38.4375C56.2284 37.9547 56.0214 37.4989 55.6722 37.1649C55.3229 36.8309 54.8583 36.6445 54.375 36.6445C53.8917 36.6445 53.4271 36.8309 53.0778 37.1649C52.7286 37.4989 52.5216 37.9547 52.5 38.4375C52.5 38.6861 52.4012 38.9246 52.2254 39.1004C52.0496 39.2762 51.8111 39.375 51.5625 39.375C51.3139 39.375 51.0754 39.2762 50.8996 39.1004C50.7238 38.9246 50.625 38.6861 50.625 38.4375V36.5625C50.6034 36.0797 50.3964 35.6239 50.0472 35.2899C49.6979 34.9559 49.2333 34.7695 48.75 34.7695C48.2667 34.7695 47.8021 34.9559 47.4528 35.2899C47.1036 35.6239 46.8966 36.0797 46.875 36.5625C46.875 36.8111 46.7762 37.0496 46.6004 37.2254C46.4246 37.4012 46.1861 37.5 45.9375 37.5C45.6889 37.5 45.4504 37.4012 45.2746 37.2254C45.0988 37.0496 45 36.8111 45 36.5625V35.625C44.9784 35.1422 44.7714 34.6864 44.4222 34.3524C44.0729 34.0184 43.6083 33.832 43.125 33.832C42.6417 33.832 42.1771 34.0184 41.8278 34.3524C41.4786 34.6864 41.2716 35.1422 41.25 35.625C41.25 35.8736 41.1512 36.1121 40.9754 36.2879C40.7996 36.4637 40.5611 36.5625 40.3125 36.5625C40.0639 36.5625 39.8254 36.4637 39.6496 36.2879C39.4738 36.1121 39.375 35.8736 39.375 35.625V22.5C39.3534 22.0172 39.1464 21.5614 38.7972 21.2274C38.4479 20.8934 37.9833 20.707 37.5 20.707C37.0167 20.707 36.5521 20.8934 36.2028 21.2274C35.8536 21.5614 35.6466 22.0172 35.625 22.5V44.0625C35.6241 44.2748 35.5513 44.4806 35.4184 44.6462C35.2856 44.8118 35.1005 44.9276 34.8935 44.9745C34.6864 45.0215 34.4696 44.997 34.2782 44.9049C34.0869 44.8128 33.9325 44.6586 33.84 44.4675L30.5737 37.6369C30.2625 36.9637 29.7113 36.1144 28.8319 35.8406C28.2581 35.6625 27.5981 35.7338 26.8594 36.0581L29.5912 46.6425C30.4312 48.5794 33.1519 54.1987 35.0737 55.3237C35.3475 55.485 36.2531 56.0719 36.5175 56.9081C36.5613 57.0483 36.5715 57.1968 36.5473 57.3416C36.5232 57.4864 36.4654 57.6236 36.3786 57.742C36.2917 57.8604 36.1783 57.9567 36.0474 58.0232C35.9165 58.0898 35.7718 58.1246 35.625 58.125ZM36.5625 15.9375C36.3138 15.9375 36.0751 15.8391 35.8988 15.6637L31.2113 10.9762C31.0405 10.7994 30.946 10.5626 30.9481 10.3168C30.9503 10.071 31.0488 9.83586 31.2227 9.66204C31.3965 9.48822 31.6316 9.38963 31.8774 9.38749C32.1232 9.38536 32.3601 9.47985 32.5369 9.65062L36.5625 13.6744L47.1488 3.08812C47.3256 2.91735 47.5624 2.82286 47.8082 2.82499C48.054 2.82713 48.2891 2.92572 48.463 3.09955C48.6368 3.27337 48.7354 3.5085 48.7375 3.75431C48.7396 4.00012 48.6451 4.23694 48.4744 4.41375L37.2244 15.6637C37.1375 15.7507 37.0343 15.8196 36.9207 15.8666C36.8071 15.9136 36.6854 15.9377 36.5625 15.9375ZM19.6875 22.5H4.6875C3.13687 22.5 1.875 21.2381 1.875 19.6875V4.6875C1.875 3.13687 3.13687 1.875 4.6875 1.875H19.6875C21.2381 1.875 22.5 3.13687 22.5 4.6875V19.6875C22.5 21.2381 21.2381 22.5 19.6875 22.5ZM4.6875 3.75C4.43886 3.75 4.2004 3.84877 4.02459 4.02459C3.84877 4.2004 3.75 4.43886 3.75 4.6875V19.6875C3.75 19.9361 3.84877 20.1746 4.02459 20.3504C4.2004 20.5262 4.43886 20.625 4.6875 20.625H19.6875C19.9361 20.625 20.1746 20.5262 20.3504 20.3504C20.5262 20.1746 20.625 19.9361 20.625 19.6875V4.6875C20.625 4.43886 20.5262 4.2004 20.3504 4.02459C20.1746 3.84877 19.9361 3.75 19.6875 3.75H4.6875ZM19.6875 46.875H4.6875C3.13687 46.875 1.875 45.6131 1.875 44.0625V29.0625C1.875 27.5119 3.13687 26.25 4.6875 26.25H19.6875C21.2381 26.25 22.5 27.5119 22.5 29.0625V44.0625C22.5 45.6131 21.2381 46.875 19.6875 46.875ZM4.6875 28.125C4.43886 28.125 4.2004 28.2238 4.02459 28.3996C3.84877 28.5754 3.75 28.8139 3.75 29.0625V44.0625C3.75 44.3111 3.84877 44.5496 4.02459 44.7254C4.2004 44.9012 4.43886 45 4.6875 45H19.6875C19.9361 45 20.1746 44.9012 20.3504 44.7254C20.5262 44.5496 20.625 44.3111 20.625 44.0625V29.0625C20.625 28.8139 20.5262 28.5754 20.3504 28.3996C20.1746 28.2238 19.9361 28.125 19.6875 28.125H4.6875Z" fill="#6376E8"/>
<path d="M30.9375 22.5H29.0625C27.5119 22.5 26.25 21.2381 26.25 19.6875V4.6875C26.25 3.13687 27.5119 1.875 29.0625 1.875H44.0625C44.3111 1.875 44.5496 1.97377 44.7254 2.14959C44.9012 2.3254 45 2.56386 45 2.8125C45 3.06114 44.9012 3.2996 44.7254 3.47541C44.5496 3.65123 44.3111 3.75 44.0625 3.75H29.0625C28.8139 3.75 28.5754 3.84877 28.3996 4.02459C28.2238 4.2004 28.125 4.43886 28.125 4.6875V19.6875C28.125 19.9361 28.2238 20.1746 28.3996 20.3504C28.5754 20.5262 28.8139 20.625 29.0625 20.625H30.9375C31.1861 20.625 31.4246 20.7238 31.6004 20.8996C31.7762 21.0754 31.875 21.3139 31.875 21.5625C31.875 21.8111 31.7762 22.0496 31.6004 22.2254C31.4246 22.4012 31.1861 22.5 30.9375 22.5ZM44.0625 22.5H40.3125C40.0639 22.5 39.8254 22.4012 39.6496 22.2254C39.4738 22.0496 39.375 21.8111 39.375 21.5625C39.375 21.3139 39.4738 21.0754 39.6496 20.8996C39.8254 20.7238 40.0639 20.625 40.3125 20.625H44.0625C44.3111 20.625 44.5496 20.5262 44.7254 20.3504C44.9012 20.1746 45 19.9361 45 19.6875V10.3125C45 10.0639 45.0988 9.8254 45.2746 9.64959C45.4504 9.47377 45.6889 9.375 45.9375 9.375C46.1861 9.375 46.4246 9.47377 46.6004 9.64959C46.7762 9.8254 46.875 10.0639 46.875 10.3125V19.6875C46.875 21.2381 45.6131 22.5 44.0625 22.5Z" fill="#6376E8"/>
</svg>
