<svg width="18" height="19" viewBox="0 0 18 19" fill="none" xmlns="http://www.w3.org/2000/svg">
<path d="M16.825 8.23405L13.3212 11.6495L14.1486 16.4735C14.1663 16.577 14.1547 16.6833 14.1152 16.7805C14.0756 16.8778 14.0097 16.962 13.9248 17.0236C13.8398 17.0853 13.7394 17.122 13.6347 17.1296C13.53 17.1371 13.4253 17.1153 13.3324 17.0664L9.00003 14.7889L4.66822 17.0659C4.57532 17.1147 4.47062 17.1366 4.36594 17.129C4.26126 17.1215 4.16078 17.0848 4.07587 17.0231C3.99095 16.9614 3.92499 16.8772 3.88543 16.78C3.84588 16.6828 3.83431 16.5764 3.85203 16.473L4.67947 11.649L1.17509 8.23405C1.09987 8.16076 1.04667 8.06788 1.02151 7.96593C0.996349 7.86397 1.00023 7.757 1.03272 7.65714C1.06521 7.55727 1.12501 7.4685 1.20534 7.40086C1.28567 7.33322 1.38334 7.28942 1.48728 7.27442L6.32984 6.5713L8.49547 2.18267C8.68503 1.79848 9.31503 1.79848 9.50459 2.18267L11.6702 6.5713L16.5128 7.27442C16.6165 7.28981 16.7138 7.33383 16.7939 7.40151C16.874 7.4692 16.9336 7.55788 16.966 7.65757C16.9984 7.75727 17.0024 7.86404 16.9775 7.96587C16.9526 8.06771 16.8998 8.16058 16.825 8.23405Z" fill="#FFDD2C"/>
</svg>
