<svg width="60" height="60" viewBox="0 0 60 60" fill="none" xmlns="http://www.w3.org/2000/svg">
<g clip-path="url(#clip0_6090_21480)">
<g clip-path="url(#clip1_6090_21480)">
<path d="M47.3356 41.4561V21.8623C47.3411 18.9746 46.6223 16.1317 45.245 13.5936C44.8467 9.87511 43.0963 6.43254 40.3263 3.92004C37.5563 1.40753 33.9598 0.00021282 30.2202 -0.0344985C26.4806 -0.0692099 22.8586 1.27111 20.0424 3.73176C17.2263 6.19241 15.4122 9.6019 14.945 13.3123C13.4511 15.9141 12.6656 18.8622 12.6669 21.8623V41.4561C10.879 42.4443 9.40629 43.9169 8.41789 45.7046C7.4295 47.4924 6.96555 49.5227 7.07937 51.5623V59.1373C7.07937 59.386 7.17814 59.6244 7.35396 59.8002C7.52977 59.9761 7.76823 60.0748 8.01687 60.0748H51.9669C52.2155 60.0748 52.454 59.9761 52.6298 59.8002C52.8056 59.6244 52.9044 59.386 52.9044 59.1373V51.5623C53.02 49.5246 52.5588 47.4956 51.5739 45.7081C50.5889 43.9205 49.12 42.4468 47.3356 41.4561ZM44.0637 22.9123L45.0012 18.4498C45.0012 18.3561 45.0012 18.253 45.0481 18.1592C45.3478 19.371 45.502 20.6141 45.5075 21.8623V40.5186C43.2904 39.6501 40.9866 39.0215 38.6356 38.6436L37.1075 38.3248V36.2342C38.3573 34.8221 39.3361 33.1917 39.995 31.4248C40.3671 31.2098 40.7213 30.9652 41.0544 30.6936C41.3998 31.0132 41.8496 31.1965 42.32 31.2092C43.8856 31.2092 45.0575 29.203 45.0575 26.5217C45.1088 25.2446 44.7615 23.9832 44.0637 22.9123ZM30.7512 28.003C30.5505 27.9299 30.3359 27.9029 30.1233 27.924C29.9107 27.9451 29.7056 28.0138 29.5231 28.1248C29.3019 28.26 29.1139 28.443 28.9727 28.6604C28.8316 28.8778 28.7409 29.124 28.7075 29.3811L28.4637 30.9373C28.4257 31.1834 28.4394 31.4348 28.5039 31.6753C28.5685 31.9158 28.6825 32.1402 28.8387 32.3342C28.9697 32.4922 29.1327 32.6207 29.3169 32.7112C29.5011 32.8017 29.7024 32.8521 29.9075 32.8592L32.6544 32.9155C32.9169 32.9099 33.1737 32.8372 33.4001 32.7043C33.6266 32.5713 33.8153 32.3826 33.9481 32.1561C34.6307 32.2923 35.3241 32.3676 36.02 32.3811C36.2886 32.3951 36.5577 32.3951 36.8262 32.3811C37.0981 32.3811 37.3512 32.3155 37.6044 32.278C37.0694 33.3741 36.3708 34.3825 35.5325 35.2686C34.8232 36.0363 33.9627 36.649 33.0052 37.068C32.0476 37.487 31.0137 37.7034 29.9684 37.7034C28.9232 37.7034 27.8893 37.487 26.9317 37.068C25.9741 36.649 25.1136 36.0363 24.4044 35.2686C22.4169 33.1873 21.1512 29.9998 20.6262 26.6061C20.6201 25.9736 20.5382 25.3441 20.3825 24.7311C20.3075 23.8873 20.2606 23.0342 20.2606 22.1905V21.5623L25.1075 17.2311C27.1044 18.9842 33.545 24.0186 39.7981 23.2311C39.7186 25.5617 39.3083 27.8691 38.5794 30.0842C37.9832 30.3372 37.35 30.4923 36.7044 30.5436C35.9173 30.6058 35.1253 30.5585 34.3512 30.403C34.3509 30.0951 34.2624 29.7938 34.0963 29.5347C33.9301 29.2755 33.6933 29.0693 33.4137 28.9405L30.7512 28.003ZM32.5419 30.5998L32.4669 31.1342L30.2919 31.078L30.4794 29.8405L32.5419 30.5998ZM26.5981 49.1155L24.3762 47.1655C24.2493 47.0561 24.0954 46.9828 23.9305 46.9531C23.7656 46.9235 23.5958 46.9385 23.4387 46.9967L17.8137 49.003C18.9992 45.8035 20.927 42.9311 23.4387 40.6217L26.5981 49.1155ZM24.7231 38.803V37.8373C26.2748 38.9351 28.1287 39.5246 30.0294 39.5246C31.9301 39.5246 33.784 38.9351 35.3356 37.8373V38.8592L30.0012 53.0342L24.7231 38.803ZM36.5637 40.6217C39.0771 42.9297 41.0052 45.8025 42.1887 49.003L36.5637 46.9967C36.4067 46.9385 36.2368 46.9235 36.072 46.9531C35.9071 46.9828 35.7532 47.0561 35.6262 47.1655L33.4419 49.0405L36.5637 40.6217ZM41.3919 26.5592C41.3919 24.6373 42.1325 23.7467 42.3294 23.7467C42.5262 23.7467 43.2669 24.6842 43.2669 26.5592C43.2669 28.4342 42.5356 29.3717 42.3294 29.3717C42.1231 29.3717 42.1419 29.2592 41.9919 29.0342C41.9613 28.9436 41.917 28.8583 41.8606 28.7811C41.5406 28.082 41.3866 27.3183 41.4106 26.5498L41.3919 26.5592ZM30.0856 1.81858C32.6588 1.81665 35.1778 2.55791 37.3399 3.95325C39.5019 5.3486 41.2149 7.33865 42.2731 9.6842L42.2169 9.62796C39.0148 6.42128 34.6828 4.59847 30.1514 4.55114C25.62 4.50381 21.2508 6.23573 17.9825 9.37483C19.0884 7.10714 20.8097 5.19613 22.9498 3.86C25.0899 2.52387 27.5626 1.81647 30.0856 1.81858ZM16.7075 13.903C17.9193 11.8802 19.5764 10.1604 21.5528 8.87438C23.5293 7.58841 25.773 6.77012 28.1133 6.48176C30.4536 6.19341 32.8288 6.44258 35.0583 7.21033C37.2878 7.97808 39.3128 9.24418 40.9794 10.9123C41.9551 11.8849 42.794 12.9856 43.4731 14.1842C43.5882 15.4828 43.506 16.7914 43.2294 18.0655L42.4137 21.9092H42.3294C42.0656 21.9159 41.8065 21.9799 41.57 22.0967C41.5494 21.8491 41.4314 21.6198 41.2419 21.4592C41.1325 21.3757 41.0061 21.3173 40.8716 21.2881C40.7371 21.259 40.5979 21.2598 40.4637 21.2905C33.6669 22.9592 25.7637 15.4686 25.6887 15.3936C25.5177 15.2433 25.2977 15.1604 25.07 15.1604C24.8423 15.1604 24.6223 15.2433 24.4512 15.3936L18.7512 20.4842C18.5847 20.6357 18.4782 20.842 18.4512 21.0655C18.4327 21.4183 18.4327 21.7719 18.4512 22.1248C18.2729 22.0649 18.0863 22.0332 17.8981 22.0311H17.8137L16.97 18.0561C16.6696 16.6934 16.581 15.2926 16.7075 13.903ZM18.7512 26.8123C18.7512 28.6873 18.0106 29.5311 17.8137 29.5311C17.6169 29.5311 16.8762 28.5936 16.8762 26.7186C16.8762 24.8436 17.6169 23.9061 17.8137 23.9061C18.0106 23.9061 18.2731 24.2811 18.5075 25.0405C18.5825 25.6217 18.6637 26.2123 18.7512 26.8123ZM14.4762 21.8623C14.4811 20.487 14.6703 19.1186 15.0387 17.7936C15.0387 18.0092 15.1044 18.2248 15.1419 18.4498L16.0794 23.0342C15.3664 24.1168 15.0091 25.395 15.0575 26.6905C15.0575 29.3905 16.2106 31.378 17.795 31.378C18.147 31.3624 18.4902 31.2623 18.7953 31.086C19.1005 30.9098 19.3587 30.6626 19.5481 30.3655C20.2079 32.5438 21.3231 34.5571 22.82 36.2717V38.3155L21.3106 38.6342C18.9596 39.0121 16.6559 39.6407 14.4387 40.5092L14.4762 21.8623ZM51.0387 54.2155V58.1811H8.94499V51.5061C8.94499 47.3811 10.5669 44.653 14.2794 42.6561C16.4131 41.6285 18.683 40.9118 21.02 40.528C18.4057 43.2391 16.5472 46.5877 15.6294 50.2405C15.596 50.3991 15.6044 50.5637 15.6537 50.7182C15.703 50.8726 15.7915 51.0117 15.9106 51.1217C16.0327 51.2393 16.1863 51.3188 16.3528 51.3504C16.5193 51.382 16.6914 51.3645 16.8481 51.2998L23.6356 48.8905L28.0137 52.6967L29.0637 55.6592C29.137 55.8445 29.2673 56.0016 29.4359 56.1078C29.6045 56.214 29.8025 56.2638 30.0012 56.2498C30.2 56.2638 30.398 56.214 30.5666 56.1078C30.7352 56.0016 30.8655 55.8445 30.9387 55.6592L32.0637 52.6498L36.3762 48.8998L43.1637 51.3092C43.3204 51.3738 43.4925 51.3914 43.659 51.3598C43.8255 51.3282 43.9792 51.2487 44.1012 51.1311C44.2203 51.0211 44.3088 50.882 44.3581 50.7276C44.4074 50.5731 44.4158 50.4085 44.3825 50.2498C43.4725 46.5981 41.6202 43.249 39.0106 40.5373C41.3539 40.9197 43.6303 41.6364 45.77 42.6655C49.52 44.6623 51.1325 47.353 51.1044 51.5155L51.0387 54.2155Z" fill="#161616"/>
</g>
</g>
<defs>
<clipPath id="clip0_6090_21480">
<rect width="60" height="60" fill="white"/>
</clipPath>
<clipPath id="clip1_6090_21480">
<rect width="60" height="60" fill="white"/>
</clipPath>
</defs>
</svg>
